<?xml version="1.0" encoding="utf-8"?>
<!-- Generator: Adobe Illustrator 25.3.0, SVG Export Plug-In . SVG Version: 6.00 Build 0)  -->
<svg version="1.1" id="Layer_1" xmlns="http://www.w3.org/2000/svg" xmlns:xlink="http://www.w3.org/1999/xlink" x="0px" y="0px"
	 viewBox="0 0 857 699" style="enable-background:new 0 0 857 699;" xml:space="preserve">
<style type="text/css">
	.st0{fill:#FFFFFF;}
	.st1{fill:#5C6E3F;}
	.st2{font-family:'ArialMT';}
	.st3{font-size:500px;}
	.st4{fill:#808080;}
</style>
<g id="BACKGROUND_1">
	<rect y="28.9" class="st0" width="500" height="500"/>
</g>
<rect x="-781" y="-633.7" width="2394.5" height="2007"/>
<g id="OBJECT">
	<text transform="matrix(1 0 0 1 275.0963 508.3822)" class="st1 st2 st3">V</text>
	<path class="st0" d="M595.5,375.6c-1.6-4.8-3.8-9.4-6.6-13.5c-2.7-4-5.8-7.7-9.3-11c-3.3-3.2-7-6.2-10.8-8.8
		c-3.8-2.6-7.7-4.9-11.8-6.9c-7.7-3.7-15.8-6.6-24.1-8.7c-7.7-2-15.4-3.5-23.2-4.6c-3.8-0.6-7.4-1-11.1-1.5l-5.5-0.6l-2.8-0.3
		l-2.7-0.3l-5.5-0.5l-5.4-0.4c-3.6-0.3-7.2-0.5-10.8-0.8c-14.2-1-28.2-1.7-41.8-2.6c-6.8-0.5-13.5-1-20.1-1.7
		c-3.3-0.4-6.6-0.7-9.8-1.1c-1.6-0.2-3.2-0.4-4.9-0.6l-4.8-0.7c-1.6-0.2-3.2-0.5-4.7-0.7s-3.1-0.5-4.6-0.8c-3.1-0.6-6.1-1.2-9.2-1.9
		c-3-0.7-6-1.5-9-2.3s-5.9-1.7-8.8-2.6c-11.1-3.5-21.7-8.4-31.5-14.5c-2.3-1.5-4.5-3-6.6-4.6c-2.1-1.6-4.1-3.3-5.9-5
		c-1.8-1.7-3.5-3.5-5.2-5.4l-0.6-0.7l-0.6-0.7c-0.4-0.5-0.8-0.9-1.1-1.4c-0.7-1-1.4-1.9-2-2.9c-10.5-15.8-11.4-36.2-2.3-52.9
		c4.4-8.2,11.5-15.6,20.1-21.6l1.6-1.1c0.5-0.4,1.1-0.7,1.7-1.1l3.5-2l3.6-1.9c1.2-0.6,2.5-1.1,3.7-1.7c5.1-2.2,10.3-3.9,15.6-5.2
		c1.4-0.3,2.7-0.6,4.1-0.9l4.1-0.7c1.4-0.2,2.8-0.3,4.1-0.4l1-0.1h1l2.1-0.1c5.6-0.2,11.2,0,16.8,0.8c11.2,1.5,22.1,5,32.1,10.3
		c4.8,2.6,9.3,5.7,13.4,9.3l1.5,1.3l1.4,1.4l1.4,1.4c0.3,0.2,0.5,0.5,0.7,0.7l0.7,0.7c0.9,1,1.8,2.1,2.7,3.1s1.8,2.2,2.7,3.4
		s1.8,2.4,2.7,3.6l2.7,3.9l2.8,4c1,1.4,1.9,2.7,3,4.2c2,2.8,4.2,5.7,6.5,8.5c0.6,0.7,1.2,1.4,1.8,2.1l1.9,2.1c0.6,0.7,1.3,1.4,2,2.1
		l1,1.1l1.1,1c0.7,0.7,1.4,1.4,2.2,2l2.3,2l1.2,1c0.4,0.3,0.8,0.6,1.2,0.9l2.5,1.8c1.6,1.2,3.3,2.3,5,3.4l1.3,0.8
		c0.4,0.3,0.9,0.5,1.3,0.7l2.6,1.4c7.1,3.7,14.6,6.6,22.4,8.5c7.7,1.9,15.7,3,23.6,3.1c3.6,0.1,7.3-0.1,10.9-0.4h0.3
		c11.8-1,13.9,6.1,27.8,2.5c14-3.6,26.6-14.2,28.5-14.5c1.8-0.3,3.9-2.8,3.2-6.3c-0.8-3.5-2.4-5.5-5.6-5.3
		c-3.2,0.2-9.4-2.1-25.8-3.2c-16.4-1.2-19.1,7.9-26.4,8.1c-9.8-0.1-19.4-2-28.6-5.4c-5.4-2-10.5-4.7-15.3-7.9l-1.7-1.2
		c-0.3-0.2-0.6-0.4-0.8-0.6l-0.8-0.6c-1-0.9-2.2-1.7-3.1-2.6l-1.5-1.3c-0.3-0.2-0.5-0.4-0.7-0.7L483,228l-1.4-1.4
		c-0.5-0.5-0.9-1-1.3-1.5c-1.8-2.1-3.4-4.3-4.9-6.6c-1.6-2.4-3.1-4.9-4.6-7.5c-0.8-1.3-1.5-2.7-2.3-4l-2.4-4.2l-2.5-4.4
		c-0.9-1.5-1.8-3-2.7-4.5s-2-3-3-4.6s-2.1-3.1-3.3-4.6l-0.9-1.2c-0.3-0.4-0.6-0.8-0.9-1.1l-2-2.3l-2-2.2l-2-2.1
		c-5.6-5.7-11.9-10.8-18.6-15.1c-6.8-4.3-14.1-8-21.6-11c-7.7-3-15.6-5.3-23.7-6.9c-8.2-1.6-16.6-2.4-25-2.5h-4.7l-1.6,0.1
		c-2.1,0.1-4.2,0.2-6.3,0.4l-6.3,0.7c-2.1,0.3-4.2,0.7-6.2,1c-8.2,1.6-16.3,3.9-24.1,6.9c-1.9,0.8-3.9,1.5-5.8,2.4l-5.6,2.7
		c-1.8,1-3.6,2-5.5,3c-0.9,0.5-1.8,1-2.7,1.6l-2.6,1.6c-7,4.4-13.5,9.6-19.3,15.4l-2.1,2.2c-0.7,0.7-1.4,1.5-2.1,2.3
		c-1.3,1.6-2.7,3.1-4,4.8c-1.3,1.6-2.4,3.4-3.6,5c-1.2,1.7-2.2,3.5-3.3,5.3c-12.3,21.2-15.2,46.6-8.2,70.1
		c2.4,7.9,5.9,15.4,10.3,22.4c2.2,3.5,4.6,6.8,7.2,10c2.6,3.2,5.4,6.2,8.3,9.1c2.9,2.9,6,5.5,9.2,8.1c3.2,2.6,6.5,4.9,9.8,7.1
		c6.7,4.4,13.7,8.3,20.9,11.7c7.1,3.3,14.4,6.3,21.8,8.8c7.4,2.5,14.8,4.6,22.3,6.4c3.8,0.9,7.5,1.7,11.3,2.4c1.9,0.4,3.8,0.7,5.6,1
		c1.9,0.3,3.8,0.6,5.6,0.9l5.6,0.8c1.9,0.3,3.7,0.5,5.6,0.7c3.7,0.5,7.4,0.9,11,1.3c7.3,0.7,14.6,1.4,21.8,1.8
		c3.6,0.3,7.1,0.5,10.7,0.7l10.6,0.6l20.8,1.2c3.4,0.2,6.8,0.4,10.2,0.7l5,0.4l5,0.4l2.5,0.2l2.5,0.2l4.9,0.5
		c3.2,0.4,6.5,0.7,9.7,1.2c6,0.8,12,1.8,17.8,3.2c5.1,1.2,10.1,2.9,14.9,5c3.9,1.8,7.6,4.1,10.8,7c1.3,1.2,2.5,2.5,3.5,3.9
		c0.8,1.1,1.5,2.4,2,3.7c0.1,0.1,0.1,0.3,0.2,0.4s0.1,0.3,0.1,0.4c0.1,0.3,0.2,0.6,0.2,0.9c0,0.3,0.1,0.6,0.2,0.9
		c0,0.3,0,0.6,0.1,0.9c0,1.4-0.1,2.8-0.4,4.2c-0.1,0.4-0.2,0.8-0.3,1.1c-0.2,0.4-0.3,0.8-0.4,1.2l-0.1,0.3l-0.1,0.3l-0.3,0.6
		l-0.3,0.6l-0.3,0.6c-0.4,0.8-0.9,1.6-1.4,2.4c-0.5,0.8-1.1,1.6-1.7,2.3c-1.3,1.6-2.7,3-4.2,4.2c-0.4,0.4-0.8,0.7-1.3,1
		c-0.4,0.3-0.8,0.7-1.3,1l-1.4,1l-1.5,0.9c-2.1,1.3-4.3,2.4-6.5,3.4c-2.4,1-4.8,1.9-7.4,2.8s-5.3,1.5-8,2.1
		c-2.7,0.6-5.6,1.1-8.5,1.5s-5.9,0.7-8.9,0.9c-1.5,0.1-3,0.2-4.5,0.2s-3.1,0.1-4.6,0.1c-12.4,0.2-25.3-1-38.6-2.8s-27-4.2-41.1-6.2
		c-7.1-1-14.3-2-21.6-2.8s-14.9-1.3-22.5-1.5c-7.7-0.2-15.5,0-23.1,0.6c-1.9,0.1-3.9,0.4-5.8,0.6s-3.9,0.5-5.8,0.8
		c-2,0.3-3.9,0.6-5.9,1c-2,0.4-4,0.8-6,1.3c-4.1,1-8.1,2.2-12.1,3.7c-4.1,1.6-8.1,3.5-11.9,5.8c-2,1.2-3.9,2.5-5.7,3.9
		c-1.9,1.4-3.6,3-5.3,4.7c-1.6,1.7-3.1,3.5-4.5,5.4c-0.7,0.9-1.3,2-2,3c-0.3,0.5-0.6,1-0.9,1.6s-0.6,1-0.8,1.6
		c-0.5,1.1-1,2.2-1.4,3.3c-0.4,1.1-0.8,2.3-1.1,3.5c-0.6,2.4-1,4.9-1,7.5c0,1.3,0,2.6,0.2,3.9c0.1,0.6,0.2,1.3,0.3,1.9
		c0.1,0.6,0.2,1.3,0.4,1.9c0.6,2.5,1.5,4.9,2.7,7.2c2.3,4.3,5.4,8.2,9.2,11.3c3.4,2.9,7.2,5.3,11.2,7.3c3.8,1.9,7.7,3.4,11.7,4.6
		c2,0.6,4,1.1,6,1.6c1,0.2,2,0.4,3,0.6l1.5,0.3c0.5,0.1,1,0.2,1.5,0.2l2.9,0.4c1,0.1,1.9,0.2,2.9,0.3c1.9,0.2,3.9,0.4,5.8,0.5
		c3.8,0.2,7.6,0.4,11.4,0.4c5.7,0,11.4-0.3,16.9-0.8c0-3.3-0.1-6.7-0.4-10c-7.7,2.4-15.5,4.6-23.3,6.8c-1.1,0.4-2.4-0.1-2.8-1.2
		c-0.2-0.5-0.2-1,0-1.5c1.9-4.8,1.4-9.8,0.9-14.7c-1.1-0.2-2.3-0.4-3.4-0.6c-0.5,1.2-1.3,2.3-2.2,3.2l0,0c-0.9,0.7-2.8,0.3-2.9-1.1
		c-0.1-1,0-2.1,0.1-3.1l-0.5-0.1c-0.4-0.1-0.8-0.2-1.1-0.3l-1-0.3c-0.7-0.2-1.4-0.4-2-0.6c-1.4-0.4-2.7-0.9-4-1.4
		c-2.5-1-4.9-2.2-7.1-3.6c-2-1.2-3.8-2.6-5.4-4.2c-1.2-1.2-2.1-2.6-2.8-4.1c-0.2-0.6-0.4-1.2-0.4-1.8c0-0.1,0-0.3,0-0.4
		c0-0.1,0-0.3,0-0.4c0-0.3,0.1-0.6,0.1-0.9c0.1-0.6,0.3-1.3,0.5-1.9c0.2-0.3,0.3-0.7,0.5-1c0.1-0.2,0.2-0.4,0.3-0.5
		c0.1-0.2,0.2-0.4,0.3-0.5c1-1.5,2.2-2.9,3.6-4.1c0.8-0.6,1.5-1.2,2.4-1.8c0.4-0.3,0.9-0.5,1.4-0.8c0.5-0.3,1-0.5,1.5-0.8
		c2.2-1.1,4.5-2,6.8-2.7c2.6-0.8,5.3-1.4,8-1.9c2.8-0.5,5.7-0.9,8.8-1.1c1.5-0.1,3-0.3,4.6-0.4s3.1-0.2,4.6-0.2
		c6.3-0.1,12.6,0,18.9,0.5c6.4,0.5,12.8,1.3,19.3,2.3c6.5,1,13.1,2.2,19.8,3.5c13.4,2.6,27.1,5.5,41.4,8c14.8,2.8,29.9,4.4,44.9,5
		c2,0,3.9,0,5.9,0.1s4-0.1,6-0.1c4-0.1,8-0.4,12-0.8s8.1-1,12.2-1.7c4.1-0.7,8.2-1.7,12.2-2.8c4.1-1.1,8.2-2.5,12.2-4.1
		c4.1-1.6,8.1-3.5,11.9-5.6l2.9-1.7c1-0.6,1.9-1.2,2.9-1.8s1.9-1.3,2.8-1.9s1.8-1.3,2.8-2c3.7-2.8,7.1-6,10.2-9.5
		c0.8-0.9,1.5-1.7,2.2-2.6l2.1-2.8c0.7-0.9,1.3-1.9,2-2.9l0.5-0.7l0.5-0.8l0.9-1.5l0.9-1.5l0.8-1.6l0.8-1.6l0.4-0.8l0.3-0.8
		c0.5-1.1,0.9-2.2,1.3-3.3s0.7-2.3,1.1-3.4c1.4-4.7,2.1-9.6,2.1-14.5C597.9,385.5,597.1,380.4,595.5,375.6z"/>
	<path class="st4" d="M560,265.2c-0.6-0.7-1.7-0.2-2.5,0c-0.9,0.3-1.7,0.7-2.5,1.2c-0.2,0-0.4,0.1-0.6,0.3c0,0,0,0.1,0,0.1l-0.1,0.1
		c-0.1,0,0,0.1,0,0.1h0.1c0,0.1,0.1,0.2,0.2,0.2c1,0,1.9,0.9,3,0.8c1-0.3,1.9-0.9,2.4-1.9C560.3,265.8,560.3,265.4,560,265.2z
		 M557.9,266.9c-0.6,0.1-1.2,0-1.7-0.3l1.1-0.2c0.2,0,0.8-0.2,1.2-0.2c0,0.1-0.1,0.2-0.1,0.2C558.3,266.7,558.1,266.8,557.9,266.9z"
		/>
	<path class="st4" d="M558.7,266.3L558.7,266.3c0-0.2-0.2-0.3-0.4-0.4c0,0,0,0-0.1,0c-0.5,0-1,0.1-1.4,0.3h-0.5
		c-0.3,0-0.5,0.2-0.5,0.5c0,0.3,0.2,0.5,0.5,0.5l0,0c0.7,0,2,0.2,2.4-0.5C558.9,266.6,558.8,266.4,558.7,266.3
		C558.7,266.3,558.7,266.3,558.7,266.3z"/>
	<path class="st4" d="M557.3,246.4c-1.3-0.5-3-0.2-4.3,0c-0.1,0,0,0.1,0,0.1c1.3,0.3,3,0.7,4.3,0.3c0.1,0,0.2-0.2,0.1-0.3
		C557.4,246.5,557.3,246.4,557.3,246.4z"/>
	<path class="st4" d="M539.1,250.6c-0.5-0.4-0.7-0.7-1.4-0.6c-0.6,0.1-1.1,0.3-1.6,0.7c-0.5,0.2-0.9,0.6-1.3,1
		c-0.2,0.3-0.5,0.6-0.8,0.8c0,0,0,0.1,0,0.1c0,0,0,0,0,0c0.7,0.5,1.6,0.6,2.5,0.4c0.5-0.2,1-0.4,1.5-0.6c0.2-0.1,0.4-0.2,0.6-0.4
		c0.2-0.2,0.2-0.5,0.4-0.7C539.3,251,539.3,250.8,539.1,250.6z"/>
	<path class="st4" d="M544.1,247.8c-0.8-0.2-1.6-0.2-2.3,0c-0.3,0.1-0.6,0.3-0.9,0.5c-0.3,0.3-0.3,0.5-0.5,0.8
		c-0.1,0.1,0,0.2,0.1,0.2s0.4,0.1,0.7,0c0.4-0.1,0.7-0.2,1.1-0.3c0.4-0.1,0.7-0.4,1-0.5c0.4-0.1,0.6-0.2,1-0.4
		C544.2,248,544.2,247.9,544.1,247.8C544.1,247.8,544.1,247.8,544.1,247.8z"/>
	<path class="st4" d="M546.5,246.6c-0.4,0-0.7,0.2-0.9,0.6c-0.1,0.1,0,0.2,0.1,0.3c0.1,0,0.1,0,0.2,0c0.2-0.1,0.5-0.1,0.7-0.1h0.1
		c0.1,0,0.1,0,0.2,0l0,0c0.1,0,0.1,0,0.2-0.1c0.1,0,0.1-0.1,0.1-0.2C547.3,246.7,546.8,246.5,546.5,246.6z"/>
	<path class="st4" d="M542.5,250.3c-0.4-0.1-0.8,0-1.2,0.2c-0.2,0.1-0.4,0.2-0.5,0.2c-0.2,0.1-0.2,0.2-0.3,0.4s-0.1,0.3,0.1,0.3
		c0.2,0.1,0.3,0.1,0.5,0.1c0.2,0,0.4-0.1,0.6-0.2c0.4-0.1,0.7-0.3,1-0.7c0.1-0.1,0.1-0.2,0-0.3C542.6,250.3,542.5,250.3,542.5,250.3
		z"/>
	<path class="st4" d="M545.9,249.5c-0.3-0.2-0.6-0.2-0.9,0c-0.1,0.1-0.1,0.2-0.1,0.3c0,0,0,0.1,0.1,0.1c0.3,0.2,0.6,0.2,0.9,0
		C546,249.7,546,249.6,545.9,249.5C545.9,249.5,545.9,249.5,545.9,249.5z"/>
	<path class="st4" d="M549.7,248.4c-0.1,0-0.3,0-0.4,0c-0.1,0-0.1,0.1-0.1,0.1c0,0,0,0.1,0.1,0.1c0.1,0,0.3,0,0.4,0
		C549.8,248.6,549.8,248.5,549.7,248.4C549.8,248.5,549.8,248.4,549.7,248.4z"/>
	<path class="st4" d="M538,254.6c-0.2,0.1-0.2,0.4,0,0.4c0.2,0,0.6,0.2,0.9,0.1c0.1,0,0.1-0.1,0.1-0.2c0,0,0,0,0,0
		C538.9,254.5,538.4,254.5,538,254.6z"/>
	<path class="st4" d="M537.1,256.2c-0.1,0-0.3,0-0.4,0c-0.1,0-0.1,0.1-0.1,0.2c0,0,0.1,0.1,0.1,0.1c0.1,0,0.3,0,0.4,0
		C537.2,256.5,537.2,256.4,537.1,256.2C537.2,256.3,537.2,256.2,537.1,256.2z"/>
	<path class="st4" d="M545.6,254.5c-0.3-0.1-0.6,0-0.9,0.1c-0.1,0-0.2,0.2-0.2,0.3c0,0.1,0.1,0.1,0.2,0.2c0.3,0.1,0.6,0.1,0.9,0.1
		c0.2,0,0.3-0.2,0.2-0.4C545.8,254.6,545.7,254.5,545.6,254.5z"/>
	<path class="st4" d="M547.1,252.9c-0.1,0-0.1,0.1-0.1,0.1c0,0,0,0.1,0.1,0.1C547.2,253.1,547.2,253,547.1,252.9
		C547.2,253,547.1,252.9,547.1,252.9z"/>
	<path class="st4" d="M568.4,248.7c-0.1-0.3-0.5-0.5-0.8-0.4c-0.3,0-0.6,0.2-0.8,0.4c-0.2,0.1,0,0.3,0.2,0.3c0.2,0,0.4,0,0.6,0.1
		c0.2,0.1,0.4,0.1,0.6,0.1C568.3,249.1,568.4,248.9,568.4,248.7z"/>
	<path class="st4" d="M570.1,249.9h-0.4c-0.3,0-0.2,0.5,0.1,0.4l0.4-0.2C570.3,250,570.3,249.9,570.1,249.9z"/>
	<path class="st4" d="M582.3,249.4c-1.4-0.7-2.6,0.1-4,0.5c-0.1,0-0.1,0.2,0,0.2c1.1,0,2.1,0.2,3.1,0.7c0.6,0.3,1.1,0.8,1.6,1.1
		c0.1,0.1,0.2,0,0.3-0.1C583.9,250.8,583.1,249.8,582.3,249.4z"/>
	<path class="st4" d="M581.8,252.1c-0.2-0.4-0.6-0.6-1-0.4c0,0-0.1,0-0.1,0.1c-0.1,0-0.2,0.1-0.3,0.2c-0.1,0.1,0,0.3,0.2,0.3
		c0.1,0,0.1,0,0.2,0c0.1,0.1,0.1,0.1,0.2,0.1c0.1,0.1,0.3,0.2,0.4,0.2c0.2,0.1,0.4-0.1,0.5-0.3C581.8,252.2,581.8,252.2,581.8,252.1
		z"/>
	<path class="st4" d="M582.3,253.7c-0.1-0.1-0.2-0.2-0.3-0.3c-0.1-0.1-0.2,0-0.1,0.1c0.1,0.1,0.2,0.2,0.3,0.3c0,0,0.1,0,0.2,0
		S582.3,253.7,582.3,253.7z"/>
	<path class="st4" d="M520.2,254.1c-0.6-0.1-1.2-0.1-1.8-0.1c-0.6,0-1.2,0.3-1.8,0.3c0,0-0.1,0.1,0,0.1c0.7,0.2,1.2,0.6,1.8,0.7
		c0.6,0.1,1.2,0.2,1.8,0.3C521,255.5,521,254.2,520.2,254.1z"/>
	<path class="st4" d="M527.9,254.7c-0.3-0.2-0.6-0.4-1-0.5c-1.5-0.1-3,0-4.5,0.3c-0.1,0-0.1,0.1-0.1,0.2c0,0,0,0,0,0.1
		c0.8,0.6,1.8,1,2.9,1c0.6,0.1,1.2,0.1,1.7,0c0.4-0.1,0.7-0.4,1-0.7C528.1,255,528.1,254.8,527.9,254.7
		C527.9,254.7,527.9,254.7,527.9,254.7z"/>
	<path class="st4" d="M531.6,254c-0.3,0.1-0.5,0.2-0.7,0.3c-0.3,0.1-0.5,0.3-0.8,0.5c-0.1,0-0.1,0.1,0,0.2c0,0,0.1,0.1,0.1,0
		c0.3-0.1,0.5-0.2,0.8-0.3c0.3-0.1,0.5-0.2,0.8-0.4C531.8,254.3,531.8,254,531.6,254z"/>
	<path class="st4" d="M512.4,253.5c-1.3-0.9-3.2-0.7-4.7-1.2c-0.1,0-0.2,0.2-0.1,0.2c1.4,0.8,3,2.1,4.7,1.6c0.2-0.1,0.3-0.3,0.3-0.5
		C512.5,253.6,512.5,253.6,512.4,253.5z"/>
	<path class="st4" d="M503.9,251.2c-0.3-0.1-0.6-0.2-0.9-0.3c-0.3-0.1-0.5-0.3-0.8-0.4c-0.1-0.1-0.1,0-0.1,0.1
		c0.1,0.3,0.4,0.6,0.6,0.8c0.3,0.2,0.6,0.3,1,0.3C504,251.6,504.1,251.3,503.9,251.2z"/>
	<path class="st4" d="M507,253.8c-0.2-0.2-0.5-0.4-0.8-0.4c-0.3-0.1-0.7-0.1-1,0c-0.1,0-0.2,0.2,0,0.3c0.3,0.1,0.6,0.1,0.9,0.3
		c0.2,0.1,0.5,0.2,0.8,0.3c0.1,0,0.2-0.1,0.2-0.3C507.1,253.9,507.1,253.8,507,253.8z"/>
	<path class="st4" d="M509.4,256.1c-0.2-0.1-0.5-0.2-0.8-0.3c-0.2-0.1-0.3,0.2-0.1,0.3c0.2,0.1,0.5,0.3,0.8,0.3c0.1,0,0.2,0,0.2-0.1
		C509.5,256.2,509.4,256.1,509.4,256.1z"/>
	<path class="st4" d="M515,256.3c-0.4-0.2-0.8-0.3-1.2-0.4c-0.1,0-0.2,0.1-0.2,0.2c0,0.1,0,0.2,0.1,0.2c0.4,0.1,0.8,0.2,1.2,0.2
		C515.1,256.5,515.1,256.4,515,256.3z"/>
	<path class="st4" d="M523.3,258c-0.3-0.7-1.4-0.6-2-0.4c-0.2,0.1-0.2,0.5,0.1,0.5c0.3,0,0.7,0,1,0.1c0.3,0.1,0.6,0.1,0.9,0.1
		C523.4,258.3,523.4,258.1,523.3,258z"/>
	<path class="st4" d="M528,257.4c-0.2-0.3-0.8-0.3-1.2-0.2s-0.2,0.5,0.1,0.5c0.2,0,0.3,0,0.5,0.1c0.1,0.1,0.3,0.1,0.4,0.1
		C527.9,257.8,528.1,257.6,528,257.4z"/>
	<path class="st4" d="M532.8,257c-0.1,0.1-0.3,0.2-0.4,0.3c-0.1,0-0.1,0.1,0,0.2c0,0.1,0.1,0.1,0.2,0c0.2-0.1,0.3-0.2,0.5-0.3
		C533,257.1,532.9,257,532.8,257z"/>
	<path class="st4" d="M493.7,248.5c-0.5-0.7-1.5-0.6-2.2-0.6c-0.1,0-0.2,0.1-0.2,0.2c0,0.1,0,0.1,0.1,0.2c0.3,0.2,0.7,0.4,1,0.5
		c0.3,0.2,0.7,0.2,1.1,0.1C493.7,248.9,493.8,248.7,493.7,248.5z"/>
	<path class="st4" d="M498.3,252.3c-0.5-0.2-1-0.3-1.5-0.4c-0.1,0-0.2,0.1-0.3,0.2c0,0.1,0,0.2,0.1,0.2c0.5,0.2,1.1,0.3,1.6,0.4
		C498.5,252.7,498.5,252.4,498.3,252.3z"/>
	<path class="st4" d="M272.6,171.9c-1.5,0.3-2.9,1.5-4.1,2.5c-0.3,0.2-0.7,0.4-1,0.7c-1.3,1-3.2,2.7-3.5,4.4c-0.4,1.7,1.1,2.4,2.5,2
		c1.9-0.5,3.6-1.5,5.1-2.8c1.2-1,3.1-2.8,3.4-4.5c0.2-1.1-0.6-2.1-1.7-2.3C273.1,171.8,272.9,171.8,272.6,171.9z"/>
	<path class="st4" d="M262.4,182.2c-1.2-1.8-3.2-0.4-4.2,0.6c-0.5,0.5-1,1-1.5,1.6c-1.4,1.2-2.5,2.7-3.1,4.5c-0.4,1.2,1,2,2,1.5
		c1.9-0.9,3.6-2.1,5-3.7C261.4,185.7,263.4,183.7,262.4,182.2z"/>
	<path class="st4" d="M252.7,193.3c-1.3-1.3-2.9-0.3-3.8,1c-0.6,0.9-1.1,1.8-1.5,2.8c-0.7,1.1-1.1,2.3-1.3,3.6
		c-0.2,0.7,0.3,1.5,1,1.6c0.5,0.1,0.9,0,1.3-0.3c2.2-1.9,3.8-4.5,4.6-7.3C253.2,194.2,253,193.7,252.7,193.3z"/>
	<path class="st4" d="M243.4,205c-0.8,0.7-1.4,1.5-1.8,2.5c-0.7,1-1.4,2-1.9,3.1c-0.7,1.4-1.6,3.7,0.2,4.7c3.8,2.1,5.9-7.1,6.2-9.2
		C246.3,204.7,244.3,204.2,243.4,205z"/>
	<path class="st4" d="M238,220.2c-1.1,1.4-1.8,3-2,4.8c-0.5,1.5-0.7,3-0.5,4.6c0.2,1.3,2,2.2,2.8,0.8c1.5-2.9,2.4-6.1,2.6-9.3
		C241,219.3,238.8,219.1,238,220.2z"/>
	<path class="st4" d="M287.3,164.5c-1.1-1.5-2.8-1.4-4.3-0.4c-1,0.7-1.8,1.5-2.7,2.3c-0.7,0.4-1.3,1-1.8,1.7c-0.7,0.7-1.1,1.7-1,2.8
		c0.1,0.6,0.6,1.3,1.3,1c3.2-1.2,6.1-3.3,8.2-6C287.4,165.5,287.5,164.9,287.3,164.5z"/>
	<path class="st4" d="M299.8,159c-0.3-2.3-2.8-1.7-4.3-1.1c-1.2,0.4-2.4,1.1-3.3,2c-0.9,0.5-1.7,1.2-2.2,2.1
		c-0.3,0.5-0.2,1.1,0.2,1.6c1.5,1.7,3.8,0.1,5.3-0.6C296.9,162.2,300.1,161.4,299.8,159z"/>
	<path class="st4" d="M311.5,152.8c-1.6-0.6-4.8-0.4-5.6,1.5c-1.1,0.5-2,1.4-2.4,2.5c-0.2,0.8,0.3,1.6,1.1,1.8c0.1,0,0.2,0,0.4,0
		c2.7-0.2,5.3-1.4,7.3-3.3c0.6-0.6,0.6-1.6,0-2.2C312,153,311.7,152.9,311.5,152.8z"/>
	<path class="st4" d="M325.7,149.3c-2.1-0.7-5.2-0.4-6.5,1.7c-0.5,0.1-1,0.4-1.5,0.6c-0.6,0.4-0.7,1.1-0.4,1.7
		c0.2,0.2,0.4,0.4,0.7,0.5c3,0.8,6.1-0.1,8.3-2.3c0.5-0.5,0.5-1.3,0-1.8C326.1,149.5,325.9,149.4,325.7,149.3z"/>
	<path class="st4" d="M338.5,147.4c-1.8-0.9-3.9-1.1-5.8-0.5c-0.5,0.2-1,0.6-1.3,1c-0.8,0.1-1.5,0.5-2.1,1c-0.5,0.5-0.4,1.3,0.1,1.7
		c0.1,0.1,0.3,0.2,0.5,0.3c3,0.8,6.1,0.3,8.7-1.3c0.6-0.4,0.8-1.2,0.4-1.8C338.8,147.6,338.6,147.5,338.5,147.4z"/>
	<path class="st4" d="M350.3,147.5c-1.4-1.3-4.9-2.4-6.4-0.7c-0.2,0-0.5,0-0.7,0.1c-0.7,0.3-1,1.2-0.7,1.9c0,0.1,0.1,0.2,0.1,0.3
		c0.6,0.7,1.5,1.1,2.4,1c1.6-0.1,3.2-0.3,4.7-0.7c0.6-0.2,1-0.8,0.8-1.5C350.5,147.8,350.4,147.6,350.3,147.5z"/>
	<path class="st4" d="M358.9,147.5c-1.2-0.4-2.5-0.7-3.8-0.7c-0.5,0-1,0.4-1,0.9c-0.1,0.1-0.1,0.2,0,0.2c0,0.5,0.5,1,1,1
		c1.1,0,2.2,0.2,3.3,0.5C359.6,149.9,360.2,147.9,358.9,147.5z"/>
	<path class="st4" d="M366.7,147.8c-0.9-0.8-2.1-0.2-2.8,0.6c0,0,0,0.1,0,0.1c0.6,0.8,1.9,1.4,2.8,0.6
		C367,148.7,367,148.1,366.7,147.8z"/>
	<path class="st4" d="M237.4,235.2c0-0.6-0.4-1-1-1c-0.4,0-0.7,0.2-0.9,0.5c-0.3,0.5-0.5,1.1-0.4,1.7c-0.7,1.5-0.8,3.3-0.3,4.9
		c0.2,0.5,0.8,0.8,1.3,0.5c0.2-0.1,0.4-0.3,0.5-0.5C237.3,239.3,237.5,237.3,237.4,235.2z"/>
	<path class="st4" d="M236.3,246.7c-0.2-0.3-0.6-0.4-0.9-0.2c-0.1,0.1-0.2,0.1-0.2,0.2c-0.2,0.4-0.2,0.7,0,0.9
		c0,0.1,0.1,0.3,0.1,0.4l-0.1,0.1c-0.1,0.3-0.2,0.6-0.3,0.9c-0.1,0.6,0.1,1.2,0.4,1.8c0.2,0.3,0.6,0.4,0.9,0.2
		c0.1-0.1,0.2-0.2,0.3-0.4C236.9,249.2,236.8,247.9,236.3,246.7z"/>
	<path class="st4" d="M237.5,258.8c-0.1-0.5-0.1-1,0-1.4c0-0.1,0-0.3-0.2-0.3s-0.3,0-0.3,0.2c-0.2,0.8-0.5,2.3,0.2,3
		c0.1,0.1,0.4,0.1,0.5,0c0.1-0.1,0.1-0.2,0.1-0.2C237.8,259.5,237.7,259.1,237.5,258.8z"/>
	<path class="st4" d="M250.6,201.4c-1.2,0.7-2.1,1.6-2.6,2.6c-0.6,0.8-0.9,1.7-0.9,2.7c0,0.4,0.4,0.7,1,0.7c0.4,0,0.7-0.1,0.9-0.3
		c1.6-1.5,2.7-3.1,3.4-4.9c0.1-0.4-0.2-0.8-0.8-0.9C251.3,201.1,250.9,201.2,250.6,201.4z"/>
	<path class="st4" d="M244.8,214.7c-0.5,0.7-0.9,1.5-1.1,2.4c0,0.1-0.1,0.1-0.1,0.2c-0.8,1.5-1.1,3.2-1,4.9c0,0.5,0.5,0.9,1,0.9
		c0.3,0,0.6-0.2,0.8-0.4c1.4-2.2,2.2-4.8,2.4-7.4C246.7,214.1,245.3,214,244.8,214.7z"/>
	<path class="st4" d="M241.7,227.7c-1.1,2.2-2,4.9-1.6,7.4c0,0.2,0,0.5,0.2,0.7c0,0.1,0.1,0.3,0.1,0.4c0.1,0.3,0.5,0.5,0.8,0.4
		c0.2-0.1,0.3-0.2,0.4-0.4c0.9-0.1,1.5-0.8,1.7-1.7c0.5-2,0.3-4.3,0.5-6.3c0-0.6-0.5-1.1-1.2-1.1
		C242.2,227.2,241.9,227.4,241.7,227.7z"/>
	<path class="st4" d="M259.1,190.6c-1.9,0.9-4.8,3.7-4.2,6.1c-0.1,0.2-0.1,0.4-0.2,0.6c-0.2,0.5,0.1,1.1,0.6,1.3
		c0.3,0.1,0.7,0.1,0.9-0.1c2.2-1.6,3.9-3.9,4.6-6.5c0.2-0.6-0.2-1.2-0.8-1.4C259.7,190.4,259.4,190.5,259.1,190.6z"/>
	<path class="st4" d="M268.7,183.6c-0.3-0.3-0.9-0.4-1.3-0.2c-0.9,0.6-1.7,1.3-2.5,2c-0.3,0.4-0.5,0.9-0.5,1.4
		c-0.2,0.5,0.1,1.1,0.6,1.3c0.3,0.1,0.6,0.1,0.8,0c1.3-0.7,2.4-1.8,3-3.2C269.1,184.4,269,183.9,268.7,183.6z"/>
	<path class="st4" d="M279.1,174.7c-0.6,0.1-1.1,0.2-1.7,0.5c-0.6,0.2-1.1,0.7-1.4,1.3c-0.2,0.5,0,1.1,0.5,1.3
		c0.1,0,0.2,0.1,0.3,0.1c0.9,0,1.7-0.5,2.2-1.2c0.3-0.4,0.2-0.9-0.1-1.2c0.1-0.1,0.3-0.2,0.4-0.2
		C279.5,175.1,279.4,174.7,279.1,174.7z"/>
	<path class="st4" d="M290.4,167.1c-0.4,0.1-0.7,0.2-1.1,0.4c-0.5,0.1-0.8,0.5-0.9,1c-0.4,0.2-0.8,0.6-1,1c-0.3,0.5-0.1,1.2,0.4,1.4
		c0.1,0,0.1,0.1,0.2,0.1c1.7,0.2,3.3-0.9,3.8-2.5c0.1-0.6-0.3-1.3-0.9-1.4C290.8,167,290.6,167,290.4,167.1z"/>
	<path class="st4" d="M303.8,160.6c-0.8,0.3-2,0.5-2.5,1.3c-0.5,0.3-1,0.7-1.4,1.1c-0.9,0.8,0.1,2.2,1.1,1.9c1.5-0.4,2.9-1.1,4-2.3
		C305.7,161.8,305,160.2,303.8,160.6z"/>
	<path class="st4" d="M317.7,155.3c-1.1-0.1-2.1,0.2-3,0.8l-0.1,0.1c-0.6,0.2-1.2,0.5-1.7,0.9c-0.5,0.6-0.5,1.5,0.1,2
		c0.3,0.2,0.6,0.4,0.9,0.4c1.6,0,3.2-0.5,4.6-1.5c0.7-0.4,0.9-1.4,0.5-2.1C318.7,155.5,318.2,155.3,317.7,155.3z"/>
	<path class="st4" d="M330.3,152.8c-1-0.1-2.1,0.2-3,0.7c-0.2,0.1-0.4,0.3-0.5,0.5c-0.5,0.1-0.9,0.3-1.4,0.4c-0.7,0.2-1.1,1-0.9,1.7
		c0.1,0.4,0.5,0.8,0.9,0.9c2.1,0.7,4.5,0,5.9-1.7c0.5-0.6,0.5-1.4,0-2C331,153,330.6,152.8,330.3,152.8z"/>
	<path class="st4" d="M340.3,152.7L340.3,152.7c-0.4-0.3-0.8-0.2-1.1,0.1c-0.2,0.1-0.5,0.2-0.7,0.2c-0.2,0-0.3,0.2-0.3,0.4
		c0,0.1,0.1,0.2,0.3,0.3c0.2,0.1,0.5,0.2,0.7,0.2c0.3,0.3,0.7,0.3,1,0.1l0.1-0.1c0.4-0.2,0.5-0.7,0.2-1.1
		C340.4,152.8,340.4,152.8,340.3,152.7z"/>
	<path class="st4" d="M355.9,151.9c-0.8-0.1-1.6,0.1-2.2,0.6c-0.2,0.1-0.3,0.4-0.1,0.6c0.1,0.1,0.1,0.2,0.2,0.2
		c0.4,0.1,0.7,0.1,1.1,0.1c0.4,0,0.8-0.1,1.2-0.3C356.5,152.8,356.5,152,355.9,151.9z"/>
	<path class="st4" d="M265.4,192.5L265.4,192.5c0.1-0.2,0-0.4-0.1-0.5c-0.1,0-0.1,0-0.2,0c0.2,0-0.1-0.1-0.1-0.1c-0.1,0-0.2,0-0.4,0
		c-0.9,0-1.5,1-1.6,1.8c0,0.5,0.4,0.9,0.8,1c0.5,0.1,0.9-0.2,1.1-0.7c0-0.2,0.1-0.4,0.1-0.6c0.1-0.2,0.1-0.2,0.1-0.4
		c0.1-0.1,0.1-0.2,0.1-0.3C265.4,192.7,265.4,192.6,265.4,192.5z"/>
	<path class="st4" d="M255.7,203.1c-0.5,0.2-1,0.4-1.4,0.8c-0.5,0.4-0.8,0.9-1,1.5c-0.3,1,1.3,1.4,1.5,0.4c0.2-0.8,0.6-1.6,1.1-2.2
		C256.3,203.4,256,203,255.7,203.1z"/>
	<path class="st4" d="M250.5,213.4c-0.3,0.1-0.6,0.4-0.8,0.7c-0.2,0.3-0.3,0.8-0.1,1c0.1,0.2,0.2,0.3,0.4,0.3c0.1,0,0.2-0.1,0.3-0.1
		c0.1-0.1,0.1-0.1,0,0c0.1,0,0.1-0.1,0.1-0.1c0.1-0.2,0.2-0.4,0.2-0.7c0.1-0.2,0.1-0.4,0.2-0.7c0.1-0.1,0-0.3-0.2-0.4
		C250.6,213.3,250.5,213.3,250.5,213.4z"/>
	<path class="st4" d="M248.1,222.8c-0.2,0.2-0.4,0.5-0.5,0.8c-0.1,0.3-0.3,0.6-0.1,0.9c0.1,0.1,0.2,0.1,0.3,0c0,0,0,0,0,0
		c0.2-0.2,0.1-0.4,0.2-0.7c0.1-0.3,0.2-0.5,0.4-0.8C248.6,222.9,248.3,222.5,248.1,222.8z"/>
	<path class="st4" d="M283.7,176.6c-0.6,0.4-1.2,0.9-1.8,1.3c-0.1,0.1-0.1,0.2-0.1,0.3s0.2,0.1,0.3,0.1l0,0c0.7-0.3,1.4-0.6,2-0.9
		S284.2,176.3,283.7,176.6z"/>
	<path class="st4" d="M274.1,185.4c-0.4,0.1-0.9,0.3-1.2,0.6c-0.3,0.2,0,0.6,0.3,0.5c0.4-0.1,0.8-0.4,1.2-0.6
		C274.6,185.6,274.3,185.3,274.1,185.4z"/>
	<path class="st4" d="M297.6,169.3c-0.3-0.1-0.7-0.1-1,0c-0.3,0.1-0.6,0.3-0.9,0.5c-0.2,0.1-0.3,0.4-0.2,0.6
		c0.1,0.2,0.3,0.3,0.5,0.2c0.3,0,0.7-0.1,1-0.3c0.3-0.2,0.6-0.3,0.7-0.6C297.8,169.6,297.8,169.4,297.6,169.3z"/>
	<path class="st4" d="M309.4,164c-0.3-0.3-0.9-0.4-1.3-0.1c-0.4,0.2-0.6,0.6-0.5,1.1c0,0.3,0.3,0.4,0.5,0.4c0.2,0,0.4-0.2,0.4-0.4
		l0.1-0.1c0,0,0.1,0,0,0h0.1c0.2,0,0.2,0,0.1,0l0,0C309.4,164.9,309.8,164.4,309.4,164z"/>
	<path class="st4" d="M324.1,159.7c-0.1-0.5-1-0.6-1.4-0.5c-0.5,0.2-0.9,0.5-1.1,1c-0.1,0.2,0,0.4,0.2,0.5c0.1,0.1,0.3,0,0.4-0.1
		c0.3-0.2,0.5-0.3,0.9-0.3c0.3-0.1,0.6,0,0.9-0.2C324.1,160,324.1,159.8,324.1,159.7z"/>
	<path class="st4" d="M336,157.1c-0.2-0.1-0.4-0.1-0.7,0c-0.4,0-0.8,0.2-1,0.6c-0.2,0.2-0.2,0.5,0,0.6c0.1,0.1,0.2,0.1,0.3,0.1
		c0.3,0,0.7,0,1-0.2c0.1-0.1,0.2-0.2,0.3-0.3c0.1-0.1,0.2-0.2,0.2-0.4C336.3,157.4,336.2,157.2,336,157.1z"/>
	<path class="st4" d="M347.7,155.1c-0.1-0.1-0.3-0.2-0.5-0.1c-0.3,0.1-0.6,0.2-0.9,0.4c-0.3,0.2-0.5,0.4-0.8,0.6
		c-0.4,0.3-0.2,0.9,0.3,0.8c0.3-0.1,0.6-0.2,0.9-0.3c0.3-0.1,0.6-0.3,0.9-0.5c0.2-0.1,0.2-0.3,0.2-0.4
		C347.9,155.3,347.8,155.2,347.7,155.1z"/>
	<path class="st4" d="M362.4,155.5c-0.1-0.3-0.5-0.4-0.9-0.4l-0.9-0.1c-0.4,0-0.4,0.6-0.1,0.7c0.4,0.1,0.6,0.2,0.9,0.4
		c0.3,0.2,0.7,0.1,0.9-0.1C362.5,155.8,362.5,155.6,362.4,155.5z"/>
	<path class="st4" d="M372.2,151.2c-0.4-0.2-0.9-0.4-1.3-0.4c-0.3-0.1-0.4,0.3-0.2,0.5c0.2,0.2,0.6,0.7,1.1,0.8
		c0.2,0,0.4-0.1,0.5-0.2c0,0,0-0.1,0.1-0.1C372.4,151.5,372.3,151.3,372.2,151.2z"/>
	<path class="st4" d="M255.3,212.7c-0.1,0.4-0.4,0.9-0.3,1.3c0,0.1,0.2,0.2,0.3,0.2c0,0,0.1,0,0.1-0.1c0.3-0.3,0.3-0.9,0.4-1.3
		c0-0.1,0-0.3-0.2-0.3C255.5,212.4,255.4,212.5,255.3,212.7z"/>
	<path class="st4" d="M240.3,269.4c-0.1-0.2-0.2-0.5-0.3-0.7c-0.1-0.2-0.2-0.4-0.3-0.5c0,0,0,0,0-0.1c-0.1-0.2-0.4-0.3-0.6-0.1
		c-0.1,0-0.1,0.1-0.1,0.1c-0.1,0.2-0.2,0.3-0.2,0.5c0,0.2,0,0.4,0,0.6c0.1,0.4,0.3,0.7,0.6,1c0.2,0.3,0.6,0.3,0.9,0.1
		C240.5,270,240.5,269.6,240.3,269.4L240.3,269.4z"/>
	<path class="st4" d="M383.6,151.2c-0.6-0.5-1.3-0.8-2.1-0.8c-0.7-0.1-1.4,0.2-1.9,0.7c-0.1,0.1-0.1,0.2,0,0.3c0,0,0,0,0,0
		c0.4,0.4,1,0.7,1.5,0.8c0.6,0.2,1.2,0.4,1.8,0.5c0.5,0,0.9-0.4,0.9-0.9C383.9,151.6,383.8,151.4,383.6,151.2z"/>
	<path class="st4" d="M391.3,154.1c-0.6-0.3-1.6-1-2.3-0.7c-0.2,0-0.3,0-0.5,0c-0.1,0-0.2,0.1-0.2,0.2c0,0.1,0,0.1,0.1,0.1
		c0.1,0.1,0.2,0.2,0.3,0.3c0.3,0.7,1.2,1,1.8,1.4C391.3,156.1,392.2,154.7,391.3,154.1z"/>
	<path class="st4" d="M396.4,156.5c-0.3,0-0.4,0.5-0.1,0.6c0.8,0.2,1.7,1.4,2.5,0.8c0.2-0.1,0.3-0.3,0.3-0.5
		C399.1,156,397.3,156.4,396.4,156.5z"/>
	<path class="st4" d="M405.8,161c-0.3-0.3-0.8-0.5-1.2-0.4c-0.1,0-0.1,0.1-0.1,0.2c0,0.1,0.1,0.1,0.1,0.1c0.3,0,0.5,0.2,0.6,0.5
		c0.1,0.2,0.2,0.5,0.2,0.8c0,0.1,0.1,0.1,0.2,0.1c0,0,0,0,0,0C406,162,406.1,161.5,405.8,161C405.8,161.1,405.8,161.1,405.8,161z"/>
	<path class="st4" d="M379.4,155.7c-0.5-0.4-1.2-0.8-1.9-0.9c-0.3-0.1-0.4,0.3-0.2,0.5c0.6,0.4,1.2,0.7,1.9,0.8
		c0.1,0,0.2-0.1,0.2-0.2C379.5,155.8,379.5,155.8,379.4,155.7z"/>
	<path class="st4" d="M390.9,159.5c-0.3-0.1-0.6-0.1-0.9,0c-0.1,0-0.3,0.1-0.3,0.3c0,0.1,0.1,0.3,0.3,0.3c0.3,0.1,0.6,0.1,0.9,0
		c0.1,0,0.2-0.2,0.2-0.3C391.1,159.6,391,159.5,390.9,159.5z"/>
	<path class="st4" d="M498.1,248.6c-0.3-0.3-0.7-0.5-1.2-0.4c-0.2,0-0.4,0.1-0.5,0.2c-0.1,0.1-0.2,0.2-0.1,0.3
		c0,0.1,0.1,0.1,0.2,0.1c0.1,0.1,0.2,0.1,0.4,0.2c0.2,0.1,0.3,0.2,0.4,0.3C497.9,249.8,498.7,249.1,498.1,248.6z"/>
	<path class="st4" d="M489.3,244.9c-0.1-0.4-0.5-0.6-0.9-0.5c0,0,0,0,0,0c-0.3,0.1-0.4,0.4-0.4,0.6c0,0,0,0.1,0,0.1
		c0.1,0.2,0.3,0.3,0.5,0.3c0.2,0,0.3,0,0.5-0.1C489.3,245.3,489.3,245.1,489.3,244.9z"/>
	<path class="st4" d="M483.5,241.7c-0.2-0.2-0.5-0.7-0.9-0.6c-0.1,0.1-0.2,0.2-0.2,0.4c0,0.4,0.6,0.4,0.9,0.6
		C483.6,242.2,483.7,241.8,483.5,241.7z"/>
	<path class="st4" d="M565.7,434.8c-1.1,0.4-2.5,1.2-2.9,2.4c-0.1,0.2-0.1,0.4,0,0.7l-0.2,0.2c-0.5,0.4-0.2,1.5,0.5,1.2
		c1.5-0.7,2.7-1.8,3.5-3.3C566.8,435.3,566.3,434.6,565.7,434.8z"/>
	<path class="st4" d="M572.6,426.6l-0.3,0.3c-0.2,0-0.4,0.1-0.6,0.3c-0.6,0.6-1,1.4-1.3,2.2c0,0.2,0,0.3,0,0.5
		c0,0.1-0.1,0.2-0.1,0.2l0,0v0.1l0,0c0,0.2,0.1,0.5,0.3,0.6c0.8,0.4,1.7-0.4,2.2-1c0.6-0.7,1-1.4,1.2-2.3c0.1-0.5-0.2-0.9-0.7-1.1
		C573.1,426.3,572.8,426.4,572.6,426.6z"/>
	<path class="st4" d="M577.3,418.7c-0.5,0.4-0.8,0.9-1.1,1.4c-0.1,0.3-0.2,0.5-0.3,0.8c-0.1,0.3,0,0.6,0.1,0.8l-0.1,0.2
		c-0.1,0.5,0.3,1.1,0.8,1c0.5,0.2,1.1-0.1,1.3-0.6c0.1-0.2,0.1-0.4,0.2-0.5c0.3-0.5,0.6-1.1,0.7-1.7c0-0.1,0-0.3,0-0.4v-0.1
		C579.3,418.7,577.9,418.1,577.3,418.7z"/>
	<path class="st4" d="M579.6,408c-0.7,1.3-1,2.8-1.1,4.3c0,0.1,0,0.3,0,0.4c0,0.1,0,0.3,0,0.4c-0.2,2,3,2.4,3.5,0.5l0.4-1.5
		c0.3-0.7,0.5-1.4,0.5-2.1c0-0.1,0-0.3,0-0.4l0.1-0.3C583.6,407.5,580.5,406.2,579.6,408z"/>
	<path class="st4" d="M584.1,394.5c-1.1-0.1-2.1,0.5-2.3,1.5c-0.4,1.1-0.5,2.3-0.4,3.5c0,0.3,0,0.6,0,1c0,0,0,0.1,0,0.1
		c-0.1,1,0.6,1.9,1.6,2c0.4,0,0.8,0,1.1-0.2c0.8-0.3,1.3-1.1,1.4-1.9c0.1-1.3,0.3-2.6,0.5-3.9C586,395.5,585.2,394.6,584.1,394.5z"
		/>
	<path class="st4" d="M584.5,385.9c-0.2-1-0.5-2-0.9-2.9c-0.1-0.3-0.3-0.5-0.5-0.7c-0.5-0.7-1.4-1-2.2-0.7c-1.2,0.3-1.9,1.5-1.6,2.7
		l0.2,0.5c-0.1,1.2,0.2,2.4,0.8,3.4c1,1.7,4,1.2,4.1-0.9C584.6,386.9,584.6,386.4,584.5,385.9z"/>
	<path class="st4" d="M581.2,373.4c-0.2-0.8-0.5-1.5-1-2.1c-0.1-0.1-0.2-0.3-0.2-0.4c-0.6-0.9-1.7-1.3-2.8-0.9
		c-0.8,0.4-1.4,1.2-1.3,2.1c-0.1,0.4,0,0.8,0.2,1.2c0.2,0.7,0.6,1.4,1.1,2c0.1,0.3,0.2,0.7,0.4,1l0,0c0.3,0.7,1,1.1,1.8,1.1
		c1.1,0,2.1-0.9,2.1-2.1C581.4,374.6,581.3,374,581.2,373.4z"/>
	<path class="st4" d="M574.6,364.3c-0.2-0.5-0.4-0.9-0.7-1.3c0-0.2-0.1-0.3-0.2-0.4c-0.5-1-1.3-1.9-2.4-2.4c-0.8-0.4-1.7-0.4-2.4,0
		c-1,0.6-1.3,1.9-0.8,2.9c0.2,0.4,0.6,0.8,1,1c0.1,0.1,0.2,0.3,0.3,0.4c0.6,0.8,1.3,1.6,2.1,2.2l0,0c0.2,0.1,0.5,0.2,0.8,0.3
		C573.6,367,575.1,365.7,574.6,364.3z"/>
	<path class="st4" d="M567.4,355.8c-0.8-1.6-1.9-2.9-3.4-3.8c-0.5-0.3-1-0.5-1.6-0.4h-0.1c-1.2,0-2.2,1-2.2,2.2c0,0.9,0.7,1.7,1.5,2
		c0.3,0.4,0.7,0.7,1,1c0.5,0.5,1.2,1,1.8,1.3c0.1,0.1,0.3,0.1,0.4,0.2l0,0C566.3,358.6,568,357.3,567.4,355.8z"/>
	<path class="st4" d="M556.6,346.8c-0.2-0.2-0.4-0.4-0.6-0.5c-0.6-0.6-1.3-1-2-1.4h-0.1c-0.8-0.5-1.7-0.5-2.5-0.1
		c-0.6,0.4-1,1-1,1.8c0,0.6,0.2,1.2,0.7,1.7c0.2,0.2,0.4,0.4,0.7,0.5c0.7,0.6,1.4,1.2,2.2,1.6c1,0.5,2.2,0.3,2.9-0.6
		C557.5,348.9,557.4,347.6,556.6,346.8z"/>
	<path class="st4" d="M546.2,341.7c-0.2-0.4-0.5-0.8-0.9-1h-0.1c-0.2-0.2-0.4-0.4-0.6-0.5l-0.5-0.2l0,0l-1-0.4c-1-0.6-2.4-0.2-3,0.8
		c-0.1,0.2-0.2,0.4-0.2,0.6c-0.1,0.2-0.1,0.5-0.1,0.7c0,1.2,0.9,2.1,2.1,2.2c0.6,0.3,1.2,0.6,1.8,0.7c0.5,0.1,1.1,0.1,1.6-0.2
		c0.3-0.1,0.5-0.2,0.7-0.4C546.6,343.4,546.7,342.5,546.2,341.7z"/>
	<path class="st4" d="M533,339.9C533.2,340,533.1,339.9,533,339.9L533,339.9z"/>
	<path class="st4" d="M536,337.3c-0.3-0.4-0.7-0.8-1.1-1.1c-0.3-0.5-0.7-0.9-1.3-1c-0.6-0.1-1.1-0.1-1.7-0.1c-0.3,0-0.5,0.1-0.8,0.2
		l-0.1,0.1l-0.1,0.1c-0.8,0.5-1.2,1.5-0.9,2.4c0.3,0.9,1.1,1.5,2,1.6h0l0.3,0.1l0,0l0.6,0.3c0,0,0.7,0.3,0.8,0.3l0,0
		c0.5,0.2,1.1,0.1,1.5-0.2C536.3,339.5,536.6,338.3,536,337.3C536.1,337.3,536.1,337.3,536,337.3z"/>
	<path class="st4" d="M526.5,334.9c0-0.5-0.2-1-0.5-1.4c-0.7-0.7-1.7-1.1-2.7-1.1c-0.9,0-1.7,0.6-1.9,1.4c-0.2,0.6-0.1,1.2,0.2,1.7
		c0.1,0.2,0.3,0.4,0.5,0.5c0.2,0.2,0.4,0.3,0.6,0.4c0.2,0.1,0.3,0.2,0.5,0.3l0,0c0.2,0,0.3,0.1,0.5,0.1h0.1c0.3,0,0.6,0,0.9,0
		c0.2,0,0.4,0,0.7-0.1c0.2,0,0.4-0.1,0.6-0.2C526.3,336.1,526.6,335.5,526.5,334.9z"/>
	<path class="st4" d="M517,332.3c-0.5-0.5-1.1-0.9-1.8-1.1l0,0c-1.3-1.1-3.1-1.4-4.7-0.9c-1.5,0.7-0.8,2.7,0.4,3.1l0.2,0.1
		c0.2,0.1,0.4,0.2,0.6,0.3l2.2,0.6c0.4,0.1,0.9,0.1,1.3-0.2c0.3,0,0.5,0,0.8,0.1c0.6,0.1,1.2-0.4,1.3-1
		C517.4,332.9,517.2,332.6,517,332.3z"/>
	<path class="st4" d="M506,329.9c-0.2-0.1-0.4-0.4-0.7-0.5c-0.1-0.1-0.3-0.1-0.4-0.2v-0.1c-0.7-1.1-2-1.6-3.3-1.2
		c-0.9,0.2-1.4,1.1-1.2,2c0.1,0.4,0.4,0.8,0.8,1c0.3,0.3,0.6,0.4,1,0.4l1.5,0.1c0.1,0,0.2,0,0.2,0h0.2c0.3,0,0.6,0,0.9,0
		c0.2,0,0.5-0.2,0.7-0.2h0.2c0.4-0.1,0.6-0.4,0.5-0.8C506.5,330.2,506.3,330,506,329.9z"/>
	<path class="st4" d="M494.7,327.5c-1.3-0.6-2.7-0.8-4.2-0.6c-1.8,0.1-1.9,2.9,0,2.9c0.3,0,0.6,0,0.9,0c0.2,0.1,0.5,0.2,0.8,0.2
		c0.3,0,0.6,0,0.9,0c0.5,0.1,1,0,1.4-0.4c0.6-0.3,0.9-1,0.6-1.6C495,327.8,494.9,327.6,494.7,327.5z"/>
	<path class="st4" d="M485.3,328.1l-0.3-0.2c-0.1-0.3-0.3-0.5-0.5-0.6c-0.9-0.5-1.9-0.7-2.9-0.5c-0.7,0.2-1,0.9-0.9,1.5
		c0.2,0.6,0.9,1,1.5,0.9h0.1c0.5,0.1,1,0.2,1.5,0.2c0.3,0,0.5-0.1,0.7-0.3c0.1,0,0.2,0,0.3,0l0,0c0.3,0.1,0.6-0.1,0.7-0.4
		S485.6,328.1,485.3,328.1z"/>
	<path class="st4" d="M475.9,326.5c-0.7-0.7-1.7-1.1-2.8-1.1c-0.5,0-0.8,0.4-0.8,0.8c0,0.1,0,0.2,0,0.2c0,0.1,0,0.2,0.1,0.3
		c0.1,0.4,0.5,0.6,0.9,0.6c0.2,0,0.3-0.1,0.5-0.2c0.1,0,0.3,0,0.4,0.1c0,0.1,0.1,0.1,0.2,0.2c0.4,0.2,0.8,0.3,1.2,0.2
		c0.3-0.1,0.5-0.4,0.4-0.8C476,326.6,475.9,326.5,475.9,326.5z"/>
	<path class="st4" d="M466,325.5c-0.1,0.1-0.2,0.1-0.2,0.2c-0.1,0.1-0.2,0.3-0.1,0.4c0,0,0,0,0,0l0,0c0,0.1,0.1,0.1,0.1,0.2l0.1,0.1
		c0,0,0.1,0.1,0.1,0.1c0,0,0,0,0.1,0c0.1,0.1,0.1,0.2,0.2,0.3c0.2,0.2,0.6,0.2,0.8,0c0.1-0.1,0.1-0.1,0.1-0.2c0.2-0.5-0.1-1-0.6-1.2
		C466.5,325.3,466.2,325.4,466,325.5z"/>
	<path class="st4" d="M460.3,325.7c-0.2-0.1-0.4-0.2-0.6-0.3c-0.2,0-0.4,0.2-0.2,0.3c0.2,0.1,0.4,0.3,0.7,0.3
		C460.3,326.2,460.4,325.9,460.3,325.7z"/>
	<path class="st4" d="M567.3,429.2c-0.1-0.5-0.6-0.8-1.1-0.6c-0.1,0-0.3,0.1-0.4,0.2c-0.4,0.2-0.6,0.6-0.7,1.1
		c-0.1,0.2-0.1,0.5-0.1,0.7c0,0.1,0.1,0.2,0.1,0.2c0.2,0.4,0.6,0.6,1,0.5C567,431,567.5,430.1,567.3,429.2z"/>
	<path class="st4" d="M572.5,420.8c-0.7-0.4-1.5-0.1-2,0.5c-0.2,0.3-0.4,0.6-0.5,0.9c0,0,0,0,0,0.1c-0.2,0.1-0.3,0.3-0.4,0.4
		c-0.3,0.5-0.3,1.1,0,1.6c0.2,0.4,0.6,0.6,1,0.6c0.4,0.1,0.9-0.1,1.2-0.4c0.5-0.6,0.9-1.2,1.2-1.9
		C573.4,422.1,573.2,421.2,572.5,420.8z"/>
	<path class="st4" d="M573.9,413.6l-0.5,1.4c0,0.1,0,0.2,0,0.2v0.1c-0.1,0.2-0.1,0.3-0.2,0.5c-0.1,0.5,0.2,1,0.7,1.1
		c0.5,0.1,0.9-0.2,1.1-0.6c0-0.1,0-0.1,0.1-0.2c0.2-0.1,0.3-0.3,0.4-0.6c0.1-0.5,0.2-0.9,0.4-1.4c0.1-0.6-0.2-1.1-0.8-1.3
		C574.7,412.7,574.1,413,573.9,413.6z"/>
	<path class="st4" d="M576.4,402.3c-0.1,0.4-0.2,0.8-0.3,1.2c-0.1,0.2-0.1,0.4-0.2,0.6c-0.1,0.2-0.1,0.5,0,0.7c0,0.1,0,0.1,0,0.2
		c-0.2,0.5,0.1,1.1,0.6,1.3s1.1-0.1,1.3-0.6l0,0c0,0,0,0,0,0c0.2-0.1,0.4-0.3,0.5-0.5c0.3-0.8,0.5-1.6,0.5-2.4
		c0-0.7-0.6-1.2-1.3-1.2C577,401.4,576.6,401.8,576.4,402.3z"/>
	<path class="st4" d="M578.9,392.8c0-1-0.1-2-0.4-3c-0.2-0.7-0.9-1.2-1.6-1.2c-0.3,0-0.6,0.1-0.8,0.2c-0.5,0.3-0.8,0.8-0.8,1.4
		c0,0.1,0,0.3,0.1,0.4c-0.2,1,0,2.1,0.6,2.9l0,0c0,0.2,0,0.3,0.1,0.5c0.1,0.6,0.7,1.1,1.3,1c0.5-0.1,0.8-0.4,1-0.8
		c0-0.1,0.1-0.2,0.1-0.3C578.7,393.7,578.9,393.3,578.9,392.8z"/>
	<path class="st4" d="M577.7,381.3c-0.1-0.9-0.3-1.8-0.8-2.7c-0.1-0.1-0.1-0.2-0.2-0.2c-0.3-0.6-0.9-1-1.6-0.9
		c-0.8,0.1-1.3,0.7-1.3,1.5c0,0.1,0,0.2,0,0.3c0,0.3,0,0.5,0.1,0.8c0.1,0.7,0.4,1.4,0.8,2c0.2,0.3,0.5,0.6,0.9,0.7
		c0.1,0.1,0.3,0.1,0.4,0.1c0.4,0,0.9-0.1,1.2-0.5C577.5,382.1,577.7,381.7,577.7,381.3z"/>
	<path class="st4" d="M571.4,369.3l-0.2-0.3c-0.2-0.4-0.5-0.8-0.9-1.2c-0.6-0.6-1.6-0.5-2.1,0.1c-0.4,0.5-0.5,1.2-0.2,1.8l0.5,1
		c0.1,0.1,0.1,0.2,0.2,0.3c0.2,0.3,0.4,0.5,0.7,0.6l0,0l0,0c0.1,0.3,0.4,0.5,0.7,0.5c0.6,0.2,1.2-0.2,1.4-0.8
		c0.1-0.3,0.1-0.6,0.1-0.9C571.7,370,571.6,369.6,571.4,369.3z"/>
	<path class="st4" d="M564.6,362.9c0-0.1-0.1-0.3-0.1-0.4l0,0l-0.1-0.1c0,0,0,0,0-0.1c0-0.9-0.4-1.7-1.1-2.2
		c-0.2-0.1-0.4-0.2-0.6-0.3c-0.2-0.1-0.5-0.2-0.7-0.2c-0.6,0-1.1,0.3-1.3,0.8c-0.4,0.5-0.4,1.2,0,1.7c0.3,0.8,1,1.4,1.8,1.6
		c0.2,0,0.4,0,0.7,0c0.2,0.1,0.4,0.1,0.5,0.1C564.2,364,564.6,363.5,564.6,362.9C564.6,362.9,564.6,362.9,564.6,362.9z"/>
	<path class="st4" d="M557.2,354.4c-0.1-0.5-0.5-1-1-1.2c-0.3-0.3-0.6-0.6-1-0.8c-0.7-0.4-1.5-0.3-2,0.3c-0.4,0.2-0.5,0.6-0.5,1l0,0
		v0.1c0,1,0.6,1.8,1.5,2.2c0.3,0.2,0.6,0.3,0.9,0.3h0.3c0.3,0.2,0.6,0.3,1,0.3c0.4,0.1,0.9-0.2,1-0.6c0-0.1,0-0.1,0-0.2
		C557.6,355.4,557.5,354.8,557.2,354.4z"/>
	<path class="st4" d="M547.7,349.8c-0.1-0.5-0.3-1-0.7-1.3c-0.2-0.3-0.5-0.6-0.8-0.7c-0.2-0.1-0.5-0.2-0.7-0.2l-0.4-0.1
		c-0.7-0.2-1.4,0.2-1.7,0.9c-0.2,0.7,0.2,1.4,0.9,1.6c0.3,0.2,0.6,0.3,1,0.4c0.3,0.1,0.5,0.1,0.8,0l0.7,0.2l0,0
		c0.4,0.1,0.8-0.1,0.9-0.4C547.7,350.1,547.7,350,547.7,349.8z"/>
	<path class="st4" d="M538.4,344.9c-0.1-0.2-0.2-0.3-0.3-0.5c-0.2-0.2-0.3-0.4-0.5-0.5c-0.4-0.3-0.9-0.5-1.4-0.6
		c-0.6-0.2-1.3,0.2-1.5,0.9c-0.1,0.5,0.1,1,0.5,1.3c0.3,0.2,0.6,0.3,1,0.4c0.4,0.1,0.9,0,1.2-0.3c0.1,0,0.3,0,0.4,0.1
		c0.3,0.1,0.6,0,0.7-0.2C538.6,345.3,538.5,345.1,538.4,344.9z"/>
	<path class="st4" d="M528.5,342.2c-0.1-0.6-0.5-1.2-1-1.6c-0.6-0.6-1.4-0.8-2.2-0.7c-0.7,0.2-1.2,1-0.9,1.7c0.2,0.5,0.6,0.9,1.2,1
		l0,0l0,0c0,0.2,0.7,0.2,0.8,0.2c0.2,0,0.3,0,0.4-0.1c0.3,0,0.6,0,0.9,0l0,0c0,0,0.1,0,0.1,0l0,0
		C528.3,342.8,528.5,342.5,528.5,342.2z"/>
	<path class="st4" d="M519.3,338.8c-0.2-0.4-0.5-0.7-0.9-0.9c-0.1-0.1-0.3-0.2-0.5-0.3c-0.3-0.1-0.6-0.2-0.9-0.1
		c-0.4,0.1-0.7,0.5-0.5,1c0,0.1,0.1,0.2,0.2,0.3c0.1,0.1,0.3,0.2,0.5,0.3l0,0c0.2,0.3,0.4,0.5,0.7,0.6c0.3,0.1,0.7,0.2,1,0.1
		c0.4-0.1,0.6-0.5,0.5-0.9C519.3,338.9,519.3,338.9,519.3,338.8z"/>
	<path class="st4" d="M509.1,336c-0.2-0.3-0.4-0.5-0.7-0.7c-0.6-0.3-1.3-0.2-1.6,0.4c-0.3,0.5-0.2,1.1,0.2,1.5
		c0.3,0.2,0.6,0.4,1,0.3c0.3-0.3,0.7-0.5,1.1-0.6l0,0c0.2-0.1,0.3-0.4,0.2-0.6C509.3,336.1,509.2,336,509.1,336z"/>
	<path class="st4" d="M500.8,334.2c-0.4-0.3-0.9-0.5-1.4-0.5c-0.3,0-0.6,0.1-0.7,0.4c-0.1,0.2-0.1,0.5,0,0.7
		c0.1,0.2,0.4,0.2,0.5,0.1c0,0,0,0,0.1-0.1l0.1-0.1h0.1h0.1l-0.1,0.1c-0.2,0.1,0,0.5,0.2,0.4l0.6-0.3c0.1,0,0.2,0,0.4-0.1
		c0.2-0.1,0.3-0.4,0.2-0.6C500.9,334.3,500.9,334.2,500.8,334.2z"/>
	<path class="st4" d="M493,332.4c-0.4-0.1-0.9-0.1-1.3-0.1c-0.2,0-0.3,0.2-0.2,0.4c0,0.1,0.1,0.2,0.2,0.2c0.4,0,0.9,0,1.3-0.1
		c0.1,0,0.2-0.1,0.1-0.2C493.1,332.5,493.1,332.5,493,332.4z"/>
	<path class="st4" d="M570.1,417.3c-0.1-0.2-0.4-0.3-0.6-0.2h-0.1c-0.2,0.1-0.4,0.2-0.4,0.4c-0.1,0.2-0.2,1.1,0.2,1.1
		c0.3,0,0.5-0.1,0.7-0.3C570.2,418,570.2,417.7,570.1,417.3z"/>
	<path class="st4" d="M573.4,408.4c-0.1-0.3-0.3-0.5-0.6-0.5c-0.3,0-0.6,0.1-0.7,0.4c-0.2,0.3-0.3,0.7-0.2,1.1c0,0.2,0,0.3,0.1,0.5
		c0,0.1,0,0.1,0,0.2c0,0,0,0.1,0.1,0.1c0,0.1,0,0.1,0,0c0.1,0.2,0.3,0.3,0.4,0.2c0.1,0,0.1,0,0.2-0.1c0.1-0.1,0.2-0.2,0.3-0.3
		c0.1-0.1,0.2-0.3,0.3-0.4C573.4,409.2,573.5,408.8,573.4,408.4z"/>
	<path class="st4" d="M574.4,398.8c-0.2-0.3-0.6-0.4-0.8-0.2c-0.1,0-0.1,0.1-0.2,0.2c-0.4,0.5,0,1.3,0.3,1.8
		c0.1,0.1,0.2,0.1,0.3,0.1c0,0,0.1,0,0.1-0.1C574.4,400.1,574.8,399.3,574.4,398.8z"/>
	<path class="st4" d="M572.9,387.6c-0.2,0-0.3,0.1-0.4,0.2c0,0,0,0,0,0.1v0.2c0,0.1,0,0.3,0,0.4c0,0.1,0,0.3-0.1,0.4
		c-0.1,0.1,0,0.3,0.1,0.3c0,0,0.1,0,0.1,0C573.5,389.2,573.9,387.7,572.9,387.6z"/>
	<path class="st4" d="M569.8,378.3c-0.2,0-0.3,0.1-0.3,0.3c0,0,0,0.1,0,0.1c0.1,0.2,0.3,0.3,0.4,0.5c0.1,0.2,0.2,0.4,0.1,0.6
		c0,0.3,0.5,0.4,0.5,0.1C570.7,379.3,570.5,378.3,569.8,378.3z"/>
	<path class="st4" d="M562.4,369.3c0-0.1,0-0.2,0-0.4c0-0.4-0.2-0.7-0.6-0.9c-0.2-0.2-0.5-0.2-0.7-0.2c-0.3,0-0.5,0.1-0.7,0.3
		c-0.1,0.1-0.2,0.1-0.3,0.2c-0.1,0.1-0.1,0.3,0,0.5c0,0.1,0.1,0.1,0.1,0.1c0.1,0.3,0.4,0.6,0.7,0.7c0.2,0.1,0.4,0.1,0.7,0.1
		c0.1,0.1,0.1,0.1,0.1,0.2c0.2,0.4,0.7,0.2,0.7-0.2C562.5,369.7,562.5,369.5,562.4,369.3z"/>
	<path class="st4" d="M552.9,358.4c0-0.1,0-0.2-0.1-0.4c-0.1-0.3-0.3-0.5-0.6-0.7c-0.5-0.3-1.1-0.2-1.4,0.3
		c-0.1,0.1-0.1,0.2-0.1,0.3c-0.1,0.3,0,0.6,0.1,0.8c0.2,0.3,0.5,0.5,0.9,0.5c-0.3,0,0.2,0,0.2,0s0.5-0.1,0.3,0h0.1
		c0.1,0,0.2,0,0.3-0.1c0.1-0.1,0.2-0.1,0.3-0.3c0.1-0.1,0.1-0.3,0.1-0.4L552.9,358.4z"/>
	<path class="st4" d="M545.4,352.9c-0.3-0.1-0.6,0.1-0.7,0.4c0,0,0,0.1,0,0.1v0.1c0,0.1,0.1,0.2,0.1,0.3c0.1,0.2,0.3,0.2,0.5,0.2
		h0.1l0,0c0,0.2,0.2,0.3,0.4,0.2c0.1,0,0.2-0.1,0.2-0.3C546.1,353.4,545.9,353,545.4,352.9z"/>
	<path class="st4" d="M537,350c-0.2-1-1-1.6-2-1.5c-0.3,0-0.6,0.2-0.7,0.5c-0.1,0.2,0,0.5,0.2,0.7c0.2,0.2,0.5,0.2,0.7,0.3
		c0.4,0.1,0.8,0.2,1.2,0.4c0.2,0.1,0.4,0.1,0.5-0.1C537,350.2,537,350.1,537,350z"/>
	<path class="st4" d="M529.5,346.3c-0.2-0.1-0.5-0.2-0.7-0.3c-0.1-0.2-0.3-0.3-0.5-0.4c-0.4-0.1-0.8,0.1-0.9,0.5
		c-0.1,0.4,0.1,0.8,0.5,0.9c0,0,0.1,0,0.1,0c0.2,0,0.4,0,0.6-0.2c0.3,0,0.5,0,0.8,0C529.7,346.8,529.7,346.4,529.5,346.3z"/>
	<path class="st4" d="M517.8,342.5c-0.3-0.1-0.6-0.3-0.9-0.4c-0.3-0.1-0.7-0.1-0.9,0.2c-0.1,0.1-0.1,0.2-0.1,0.4
		c0.3,0.7,1.2,0.5,1.8,0.5C518.1,343.1,518.1,342.6,517.8,342.5z"/>
	<path class="st4" d="M507.5,341.1c-0.3,0.1-0.7,0.2-0.9,0.4c-0.1,0.1,0,0.3,0.1,0.3c0.3,0,0.6-0.1,0.9-0.3
		C507.8,341.5,507.7,341.1,507.5,341.1z"/>
	<path class="st4" d="M558.9,441.8c-0.2-0.1-0.5-0.1-0.8,0c-0.1,0-0.2,0.1-0.3,0.1l-0.4,0.1c-0.5,0.1-0.8,0.6-0.7,1.1
		c0,0.4,0.3,0.8,0.8,0.8c0.4,0.1,0.8-0.1,1-0.5l0.2-0.5c0.1-0.1,0.1-0.2,0.2-0.4C559,442.3,559.1,441.9,558.9,441.8z"/>
	<path class="st4" d="M451.7,324.7c-0.1,0-0.3,0-0.5,0l-0.6-0.4c-0.3-0.2-0.8-0.1-1,0.2c0,0,0,0,0,0c-0.2,0.3-0.1,0.8,0.2,1
		c0,0,0,0,0.1,0c0.6,0.3,1.3,0.2,1.9-0.1c0.2,0,0.3-0.2,0.3-0.4C452.1,324.8,451.9,324.6,451.7,324.7L451.7,324.7z"/>
	<path class="st4" d="M487.9,332.4c-0.3-0.3-0.6-0.4-1-0.4c-0.2,0-0.4,0.1-0.5,0.1c-0.2,0.1-0.3,0.2-0.5,0.4s0,0.3,0.2,0.3
		c0.2,0,0.5,0,0.7,0c0.2,0,0.5,0.1,0.7,0.2C487.8,333.1,488.2,332.7,487.9,332.4z"/>
	<path class="st4" d="M268.7,460.2c0-0.5-0.1-1-0.5-1.4c-0.3-0.7-1-1.2-1.8-1.2c-1.1,0-2,0.9-2,2c-0.1,1.1-0.1,2.2,0,3.3
		c0,0.7,0.1,1.4,0.2,2.1c-0.1,1.8,3,2.2,3.4,0.3v-0.2c0.3-0.3,0.5-0.8,0.6-1.3C268.6,462.7,268.6,461.4,268.7,460.2z"/>
	<path class="st4" d="M270.8,447.4c-1-0.4-2.2,0-2.8,0.9c-0.6,0.9-1.1,1.9-1.3,3c0,0.3,0,0.5,0,0.8c-0.1,0.2-0.1,0.5-0.2,0.7
		c-0.3,1.1,0.4,2.3,1.5,2.7c1.1,0.3,2.3-0.4,2.7-1.5c0.5-1.3,1-2.6,1.4-3.9C272.5,448.9,271.9,447.8,270.8,447.4z"/>
	<path class="st4" d="M277.9,438.3c-0.9-0.7-2.1-0.6-2.9,0.2c-0.8,0.7-1.4,1.6-1.9,2.5l-0.2,0.3c-0.1,0.1-0.2,0.3-0.3,0.4
		c-0.1,0.1,0,0,0,0c-0.2,0.2-0.3,0.4-0.4,0.6l0,0c-0.4,0.6-0.4,1.5,0,2.1c0.6,1,1.9,1.3,2.9,0.8c0.8-0.5,1.4-1.1,1.9-1.8
		c0.6-0.7,1.1-1.4,1.5-2.2C279,440.2,278.7,439,277.9,438.3z"/>
	<path class="st4" d="M285.3,433.5c-0.3-1-1.4-1.6-2.4-1.3c-0.1,0-0.3,0.1-0.4,0.2c-0.6,0.3-1.1,0.8-1.5,1.4
		c-0.1,0.1-0.1,0.2-0.1,0.3c-0.1,0.2-0.2,0.3-0.3,0.5c-0.1,0.2-0.2,0.5-0.2,0.7l0,0c0,0.3,0.1,0.5,0.2,0.8c0.2,0.3,0.5,0.6,0.8,0.7
		c0.6,0.3,1.3,0.3,1.9,0c0.3-0.2,0.6-0.4,0.9-0.6c0.5-0.5,0.9-1,1.1-1.7C285.3,434.2,285.4,433.9,285.3,433.5z"/>
	<path class="st4" d="M291.3,428.8c-0.2-0.2-0.4-0.4-0.7-0.6c-0.4-0.1-0.8-0.2-1.2-0.1c-0.6,0.2-1.1,0.5-1.5,0.8
		c-0.9,0.5-1.3,1.6-0.8,2.4c0.5,0.9,1.6,1.3,2.4,0.8c0.1,0,0.1-0.1,0.2-0.1l0.6-0.4l0.3-0.1c0.3-0.2,0.6-0.5,0.8-0.8
		C291.8,430.2,291.7,429.4,291.3,428.8z"/>
	<path class="st4" d="M296.6,425.3c-0.3,0-0.7,0.1-0.9,0.4c-0.1,0-0.3,0.1-0.4,0.2c-0.4,0.2-0.6,0.7-0.5,1.2
		c0.1,0.3,0.4,0.5,0.7,0.5c0.2,0,0.4-0.1,0.5-0.2l0,0l0,0h0.1c0.3,0.2,0.7,0.1,0.9-0.2c0,0,0-0.1,0-0.1c0.1-0.3,0.2-0.5,0.2-0.8
		C297.3,425.8,297,425.4,296.6,425.3z"/>
	<path class="st4" d="M270.3,471.1c0-0.2-0.1-0.3-0.2-0.5v-0.1c-0.6-1-1.8-1.3-2.7-0.7c0,0,0,0,0,0c-0.7,0.4-1.1,1.2-1,2.1
		c0,0.8,0.2,1.5,0.6,2.2c0.5,0.8,1.4,1.1,2.2,0.9c0.3-0.1,0.6-0.3,0.9-0.5c0.4-0.4,0.6-0.9,0.6-1.4
		C270.7,472.4,270.6,471.7,270.3,471.1z"/>
	<path class="st4" d="M274,478.5c-0.3-0.9-1.1-1.5-2-1.6c-0.2,0-0.3,0-0.5,0.1c-0.6,0.1-1,0.4-1.3,0.9c-0.1,0.2-0.2,0.3-0.3,0.5
		c-0.2,0.5-0.2,1.1-0.1,1.7c0.1,0.2,0.2,0.5,0.3,0.7c0.2,0.3,0.5,0.6,0.8,0.8c0.4,0.3,1,0.3,1.5,0.2l0.2-0.1h0.1
		c0.8-0.2,1.4-1,1.4-1.9C274.3,479.4,274.2,479,274,478.5z"/>
	<path class="st4" d="M279.3,485.2c-0.1-0.5-0.5-0.9-1-1.2l0,0c-0.1-0.1-0.1-0.1-0.2-0.2l-0.4-0.4c-0.6-0.7-1.6-0.7-2.2-0.1
		s-0.7,1.6-0.1,2.2c0,0,0.1,0.1,0.1,0.1l0.3,0.4l0.1,0.1l0,0c0.2,0.5,0.5,0.9,1,1.1c0.7,0.3,1.5,0.2,2-0.3
		C279.3,486.4,279.4,485.8,279.3,485.2z"/>
	<path class="st4" d="M284.3,489c-0.1-0.4-0.3-0.7-0.6-0.8c-0.6-0.4-1.4-0.2-1.8,0.4c0,0,0,0,0,0.1c0,0.1-0.1,0.1-0.1,0.2l-0.2,0.2
		c-0.1,0.1-0.1,0.3,0,0.5c0.1,0.1,0.2,0.1,0.3,0.1h0.1c0,0.2,0.1,0.3,0.1,0.5c0.1,0.2,0.2,0.4,0.4,0.5c0.3,0.2,0.7,0.2,1,0
		c0.1-0.1,0.2-0.2,0.3-0.2l0,0C284.2,490,284.4,489.5,284.3,489z"/>
	<path class="st4" d="M282.8,484L282.8,484c-0.1-0.2-0.1-0.3-0.2-0.4l-0.3-0.2c-0.1-0.2-0.2-0.3-0.3-0.5c-0.3-0.3-0.7-0.4-1.1-0.3
		c-0.4,0.1-0.7,0.4-0.8,0.8c-0.3,1.1,0.3,2.2,1.3,2.5c0,0,0.1,0,0.1,0c0.6,0.2,1.3-0.2,1.5-0.8C283.3,484.7,283.2,484.3,282.8,484
		L282.8,484z"/>
	<path class="st4" d="M278.4,477.9L278.4,477.9c0-0.1-0.1-0.2-0.1-0.3c-0.2-0.2-0.4-0.4-0.6-0.6c-0.3-0.2-0.8-0.2-1.1,0
		c-0.3,0.2-0.5,0.6-0.5,0.9c0,0.8,0.4,1.5,1,1.9c0.5,0.3,1.2,0.2,1.5-0.3C279,479,278.9,478.3,278.4,477.9z"/>
	<path class="st4" d="M274.4,472.1l-0.2-0.1l0,0c-0.1-0.6-0.6-1.1-1.3-1.1c-0.6,0-1.2,0.5-1.2,1.1c-0.3,0.4-0.4,0.9-0.3,1.3
		c0.2,0.7,0.8,1.2,1.5,1.4c0.7,0.2,1.4-0.1,1.7-0.7C275,473.4,274.9,472.6,274.4,472.1z"/>
	<path class="st4" d="M272.3,465.4c0-0.2,0-0.3,0-0.5c0-0.1,0-0.1,0-0.2c0.1-0.5-0.1-1-0.5-1.3c-0.4-0.4-1.1-0.5-1.6-0.1
		c-0.4,0.3-0.5,0.8-0.4,1.2c-0.1,0.1-0.1,0.2-0.1,0.4c-0.2,0.7,0.1,1.4,0.7,1.8c0.6,0.4,1.4,0.2,1.8-0.5
		C272.3,465.9,272.3,465.7,272.3,465.4z"/>
	<path class="st4" d="M271,454.5c-0.2,0.6-0.3,1.1-0.4,1.7c0,0.2,0,0.4,0,0.7c-0.1,0.4-0.1,0.9-0.2,1.3c0,0.4,0.2,0.8,0.5,1
		c0,0,0,0,0,0.1c0.3,0.4,0.8,0.6,1.2,0.3c0.1-0.1,0.2-0.2,0.3-0.3c0.2-0.2,0.4-0.4,0.4-0.7c0.3-1.1,0.6-2.2,0.8-3.3
		C274,453.5,271.4,452.8,271,454.5z"/>
	<path class="st4" d="M276.3,447.2L276.3,447.2c-0.4-0.4-1-0.5-1.4-0.3c-0.3,0.2-0.5,0.4-0.6,0.7c-0.2,0.2-0.2,0.6-0.1,0.8
		c-0.1,0.1-0.1,0.2-0.2,0.4c-0.1,0.1-0.1,0.2-0.1,0.3c-0.2,0.2-0.3,0.5-0.4,0.8c-0.3,0.5-0.1,1.2,0.4,1.4c0.5,0.3,1.1,0.1,1.4-0.4
		c0.3-0.5,0.6-1,0.9-1.5c0.2-0.4,0.4-0.8,0.4-1.2C276.6,447.8,276.5,447.4,276.3,447.2z"/>
	<path class="st4" d="M280.8,440.3c-0.3,0.4-0.5,0.8-0.7,1.3l-0.4,0.8c-0.2,0.4-0.1,0.9,0.3,1.1s0.9,0.1,1.1-0.3l0,0l0.6-1
		c0.2-0.3,0.3-0.6,0.3-0.9l0.1-0.1c0.2-0.4,0.1-0.8-0.3-1C281.5,439.9,281.1,440,280.8,440.3z"/>
	<path class="st4" d="M287.6,436.3c-0.1-0.3-0.3-0.4-0.6-0.4c-0.6,0-1.2,0.5-1.3,1.1c-0.1,0.3,0.1,0.5,0.4,0.6c0.2,0,0.3,0,0.4-0.1
		c0.2-0.2,0.5-0.2,0.7-0.3c0.2-0.1,0.4-0.2,0.4-0.4C287.7,436.6,287.7,436.4,287.6,436.3z"/>
	<path class="st4" d="M292.3,433.1c-0.1,0-0.1,0.1-0.1,0.2c0,0.1,0.1,0.1,0.1,0.1c0.1,0,0.2,0,0.2-0.1
		C292.5,433.2,292.4,433.2,292.3,433.1C292.3,433.1,292.3,433.1,292.3,433.1z"/>
	<path class="st4" d="M275.9,457.4c-1,0-1.6,1.6-0.5,1.9c0.2,0.1,0.5-0.1,0.5-0.3c0-0.1,0-0.1,0-0.2c0,0.2,0-0.1,0-0.2
		c0-0.1,0-0.1,0-0.2c0,0,0-0.1,0,0s0-0.1,0.1-0.2c0.2,0,0.4-0.2,0.3-0.5C276.3,457.5,276.1,457.4,275.9,457.4z"/>
	<path class="st4" d="M276.2,466.9l-0.2-0.8c-0.1-0.3-0.7-0.3-0.6,0.1c0,0.4,0.1,0.6,0.1,0.9c0,0.3,0.1,0.6,0.2,0.8
		c0.1,0.1,0.4,0.1,0.5,0c0,0,0.1-0.1,0.1-0.1C276.3,467.4,276.3,467.2,276.2,466.9z"/>
	<path class="st4" d="M281.4,448.7c-0.2-0.1-0.5-0.2-0.8-0.1c-0.2,0.1-0.4,0.2-0.5,0.4l0,0c-0.2,0.3-0.2,0.7-0.1,1
		c0.1,0.2,0.2,0.5,0.4,0.6c0.3,0.1,0.7-0.2,0.5-0.5v-0.1l0,0l0,0c0.2,0,0.3-0.1,0.5-0.2h0.1c0.3-0.2,0.4-0.6,0.2-0.9
		C281.7,448.8,281.6,448.7,281.4,448.7z"/>
	<path class="st4" d="M287.6,441.2L287.6,441.2c0-0.2-0.2-0.4-0.4-0.4l0,0c-0.2-0.1-0.5,0-0.6,0.2l-0.3,0.4c-0.1,0.2,0,0.5,0.2,0.6
		c0.1,0.1,0.3,0.1,0.4,0l0.4-0.3C287.5,441.7,287.6,441.4,287.6,441.2z"/>
	<path class="st4" d="M293.9,433.3c-0.3,0-0.5,0-0.7,0.2c-0.2,0.1-0.4,0.3-0.6,0.4c-0.1,0.1-0.2,0.3-0.1,0.4
		c0.1,0.1,0.2,0.1,0.3,0.1c0.2,0,0.4-0.1,0.6-0.1c0.2,0,0.5-0.1,0.6-0.3C294.4,433.9,294.3,433.4,293.9,433.3z"/>
	<path class="st4" d="M280.1,472.6c-0.2-0.3-0.3-0.6-0.4-0.9c-0.1-0.2-0.2-0.2-0.4-0.2c-0.1,0-0.2,0.1-0.2,0.3c0,0.6,0.3,2,1.1,2.1
		c0.2,0.1,0.4-0.1,0.5-0.3c0-0.1,0-0.1,0-0.2C280.6,473,280.3,472.8,280.1,472.6z"/>
	<path class="st4" d="M281,458.5c-0.5,0.6-0.6,1.5-0.2,2.2c0.1,0.2,0.3,0.2,0.5,0.1c0.1-0.1,0.2-0.2,0.2-0.4
		c-0.1-0.3-0.1-0.5-0.2-0.8c0-0.3,0.1-0.6,0.2-0.9c0.1-0.1,0-0.3-0.1-0.4S281,458.4,281,458.5L281,458.5z"/>
	<path class="st4" d="M285.3,452.6c-0.1,0-0.2,0.1-0.2,0.2s0.1,0.2,0.2,0.2c0.1,0,0.2-0.1,0.2-0.2S285.4,452.6,285.3,452.6
		L285.3,452.6z"/>
	<path class="st4" d="M291,494.8c-0.2-0.4-0.6-0.7-1-0.8c-0.4,0-0.8-0.1-1.2-0.2c-0.2-0.1-0.5,0.1-0.5,0.3c0,0.2,0.1,0.4,0.3,0.5
		c0.7,0.3,1.5,1.1,2.3,0.6C291,495.2,291.1,495,291,494.8z"/>
	<path class="st4" d="M296.6,495.2c-0.1,0-0.2,0.1-0.2,0.2c0,0.1,0.1,0.2,0.2,0.2c0.1,0,0.2-0.1,0.2-0.2
		C296.8,495.3,296.7,495.2,296.6,495.2z"/>
</g>
</svg>
