<svg width="281" height="281" viewBox="0 0 281 281" fill="none" xmlns="http://www.w3.org/2000/svg">
<g filter="url(#filter0_d_23_118)">
<g clip-path="url(#clip0_23_118)">
<rect x="4" y="273" width="273" height="273" rx="12.06" transform="rotate(-90 4 273)" fill="#42B4E4"/>
<path d="M55.3027 217.461H55.4098V275.679C55.4098 258.88 43.1738 245.261 28.0741 245.261C42.3753 245.261 54.1072 233.034 55.3027 217.461Z" fill="white"/>
<path d="M0.738373 217.461H0.845432C2.04092 233.034 13.7728 245.261 28.0741 245.261C12.9788 245.261 0.738373 258.88 0.738373 275.679L0.738373 217.461Z" fill="white"/>
<path d="M55.4418 161.244H55.5488V219.462C55.5488 202.662 43.3129 189.043 28.2132 189.043C42.5144 189.043 54.2463 176.816 55.4418 161.244Z" fill="white"/>
<path d="M0.877457 161.244H0.984515C2.18001 176.816 13.9119 189.043 28.2131 189.043C13.1178 189.043 0.877457 202.662 0.877457 219.462L0.877457 161.244Z" fill="white"/>
<path d="M53.6575 51.5085H53.7645V109.726C53.7645 92.9269 41.5286 79.3081 26.4288 79.3081C40.7301 79.3081 52.462 67.0811 53.6575 51.5085Z" fill="white"/>
<path d="M-0.90686 51.5085H-0.799802C0.395689 67.0811 12.1276 79.3081 26.4288 79.3081C11.3335 79.3081 -0.90686 92.9269 -0.90686 109.726L-0.90686 51.5085Z" fill="white"/>
<path d="M220.197 218.062L220.197 217.956H278.415C261.615 217.956 247.986 230.092 247.974 245.068C247.986 230.884 235.769 219.248 220.197 218.062Z" fill="white"/>
<path d="M220.131 273.21L220.131 273.103C235.704 271.918 247.941 260.282 247.953 246.098C247.94 261.069 261.549 273.21 278.348 273.21H220.131Z" fill="white"/>
<path d="M218.184 107.821L218.184 107.714H276.402C259.602 107.714 245.973 119.85 245.96 134.826C245.973 120.642 233.756 109.006 218.184 107.821Z" fill="white"/>
<path d="M218.118 162.968L218.118 162.861C233.691 161.676 245.928 150.04 245.94 135.856C245.927 150.827 259.536 162.968 276.335 162.968H218.118Z" fill="white"/>
<path d="M217.292 -2.36074L217.292 -2.46692L275.509 -2.46692C258.71 -2.46692 245.081 9.66883 245.068 24.645C245.081 10.4608 232.864 -1.17503 217.292 -2.36074Z" fill="white"/>
<path d="M217.225 52.7862L217.226 52.6801C232.799 51.4944 245.036 39.8585 245.048 25.6744C245.035 40.6461 258.644 52.7862 275.443 52.7862H217.225Z" fill="white"/>
<path d="M0.431377 273.211C0.431377 265.758 3.32172 258.61 8.46656 253.339C13.6114 248.069 20.5893 245.108 27.8652 245.108C35.1411 245.108 42.119 248.069 47.2638 253.339C52.4087 258.61 55.299 265.758 55.299 273.211H27.8652L0.431377 273.211Z" fill="#DD5327"/>
<path d="M55.5149 217.45C55.5149 224.903 52.6245 232.051 47.4797 237.322C42.3348 242.592 35.3569 245.553 28.081 245.553C20.8051 245.553 13.8272 242.592 8.6824 237.322C3.53756 232.051 0.647217 224.903 0.647217 217.45H28.081L55.5149 217.45Z" fill="#5C6E3F"/>
<path d="M111.388 273.101L111.388 273.21L52.4612 273.21C69.4652 273.21 83.25 260.749 83.2502 245.372C83.25 259.936 95.6259 271.883 111.388 273.101Z" fill="white"/>
<path d="M111.389 217.534L111.389 217.643C95.6263 218.86 83.2503 230.808 83.2501 245.372C83.2503 229.999 69.4657 217.534 52.4617 217.534H111.389Z" fill="white"/>
<path d="M54.7484 217.428C62.2923 217.371 69.5494 220.243 74.9232 225.413C80.297 230.583 83.3473 237.627 83.4031 244.996C83.4588 252.364 80.5154 259.454 75.2205 264.704C69.9255 269.955 62.7127 272.937 55.1687 272.994L54.9586 245.211L54.7484 217.428Z" fill="#DD5327"/>
<path d="M111.609 272.785C104.066 272.842 96.8084 269.97 91.4346 264.8C86.0608 259.63 83.0105 252.586 82.9548 245.218C82.899 237.849 85.8424 230.76 91.1374 225.509C96.4323 220.258 103.645 217.276 111.189 217.219L111.399 245.002L111.609 272.785Z" fill="#5C6E3F"/>
<path d="M165.038 217.461H165.145V275.679C165.145 258.88 152.909 245.261 137.809 245.261C152.111 245.261 163.843 233.034 165.038 217.461Z" fill="white"/>
<path d="M110.474 217.461H110.581C111.776 233.034 123.508 245.261 137.809 245.261C122.714 245.261 110.474 258.88 110.474 275.679V217.461Z" fill="white"/>
<path d="M110.167 273.211C110.167 265.758 113.057 258.61 118.202 253.339C123.347 248.069 130.325 245.108 137.6 245.108C144.876 245.108 151.854 248.069 156.999 253.339C162.144 258.61 165.034 265.758 165.034 273.211H137.6L110.167 273.211Z" fill="#42B4E4"/>
<path d="M165.25 217.45C165.25 224.903 162.36 232.051 157.215 237.322C152.07 242.592 145.092 245.553 137.816 245.553C130.54 245.553 123.563 242.592 118.418 237.322C113.273 232.051 110.383 224.903 110.383 217.45H137.816L165.25 217.45Z" fill="#42B4E4"/>
<path d="M221.124 273.101L221.124 273.21L162.197 273.21C179.201 273.21 192.985 260.749 192.985 245.372C192.985 259.936 205.361 271.883 221.124 273.101Z" fill="white"/>
<path d="M221.124 217.534L221.124 217.643C205.362 218.86 192.986 230.808 192.985 245.372C192.986 229.999 179.201 217.534 162.197 217.534H221.124Z" fill="white"/>
<path d="M164.484 217.428C172.028 217.371 179.285 220.243 184.659 225.413C190.032 230.583 193.083 237.627 193.138 244.996C193.194 252.364 190.251 259.454 184.956 264.704C179.661 269.955 172.448 272.937 164.904 272.994L164.694 245.211L164.484 217.428Z" fill="#DD5327"/>
<path d="M221.345 272.785C213.801 272.842 206.544 269.97 201.17 264.8C195.796 259.63 192.746 252.586 192.69 245.218C192.634 237.849 195.578 230.76 200.873 225.509C206.168 220.258 213.38 217.276 220.924 217.219L221.135 245.002L221.345 272.785Z" fill="#5C6E3F"/>
<path d="M109.724 162.594H109.831V220.811C109.831 204.012 97.5954 190.393 82.4956 190.393C96.7969 190.393 108.529 178.166 109.724 162.594Z" fill="white"/>
<path d="M55.1599 162.594H55.267C56.4625 178.166 68.1944 190.393 82.4956 190.393C67.4003 190.393 55.1599 204.012 55.1599 220.811V162.594Z" fill="white"/>
<path d="M54.8529 218.343C54.8529 210.89 57.7433 203.742 62.8881 198.472C68.033 193.201 75.0109 190.24 82.2868 190.24C89.5627 190.24 96.5406 193.201 101.685 198.472C106.83 203.742 109.721 210.89 109.721 218.343H82.2868L54.8529 218.343Z" fill="#DD5327"/>
<path d="M109.936 162.582C109.936 170.035 107.046 177.184 101.901 182.454C96.7564 187.724 89.7785 190.685 82.5026 190.685C75.2267 190.685 68.2488 187.724 63.104 182.454C57.9591 177.184 55.0688 170.035 55.0688 162.582H82.5026L109.936 162.582Z" fill="#5C6E3F"/>
<path d="M165.81 218.233L165.81 218.342L106.883 218.342C123.887 218.342 137.672 205.881 137.672 190.504C137.672 205.068 150.047 217.015 165.81 218.233Z" fill="white"/>
<path d="M165.81 162.666L165.81 162.775C150.048 163.993 137.672 175.94 137.672 190.504C137.672 175.131 123.887 162.666 106.883 162.666H165.81Z" fill="white"/>
<path d="M109.17 162.56C116.714 162.503 123.971 165.376 129.345 170.546C134.719 175.715 137.769 182.759 137.825 190.128C137.88 197.497 134.937 204.586 129.642 209.837C124.347 215.087 117.134 218.069 109.59 218.126L109.38 190.343L109.17 162.56Z" fill="#DD5327"/>
<path d="M166.031 217.918C158.487 217.975 151.23 215.102 145.856 209.932C140.482 204.762 137.432 197.718 137.376 190.35C137.321 182.981 140.264 175.892 145.559 170.641C150.854 165.39 158.067 162.409 165.611 162.351L165.821 190.134L166.031 217.918Z" fill="#5C6E3F"/>
<path d="M219.46 162.594H219.567V220.811C219.567 204.012 207.331 190.393 192.231 190.393C206.532 190.393 218.264 178.166 219.46 162.594Z" fill="white"/>
<path d="M164.895 162.594H165.002C166.198 178.166 177.93 190.393 192.231 190.393C177.136 190.393 164.895 204.012 164.895 220.811V162.594Z" fill="white"/>
<path d="M164.588 218.343C164.588 210.89 167.479 203.742 172.623 198.472C177.768 193.201 184.746 190.24 192.022 190.24C199.298 190.24 206.276 193.201 211.421 198.472C216.566 203.742 219.456 210.89 219.456 218.343H192.022L164.588 218.343Z" fill="#DD5327"/>
<path d="M219.672 162.582C219.672 170.035 216.781 177.184 211.637 182.454C206.492 187.724 199.514 190.685 192.238 190.685C184.962 190.685 177.984 187.724 172.839 182.454C167.694 177.184 164.804 170.035 164.804 162.582H192.238L219.672 162.582Z" fill="#5C6E3F"/>
<path d="M275.545 218.233L275.545 218.342L216.618 218.342C233.622 218.342 247.407 205.881 247.407 190.504C247.407 205.068 259.783 217.015 275.545 218.233Z" fill="white"/>
<path d="M275.546 162.666L275.546 162.775C259.783 163.993 247.407 175.94 247.407 190.504C247.407 175.131 233.623 162.666 216.619 162.666H275.546Z" fill="white"/>
<path d="M218.905 162.56C226.449 162.503 233.706 165.376 239.08 170.546C244.454 175.715 247.504 182.759 247.56 190.128C247.616 197.497 244.672 204.586 239.377 209.837C234.082 215.087 226.87 218.069 219.326 218.126L219.115 190.343L218.905 162.56Z" fill="#DD5327"/>
<path d="M275.556 217.918C268.012 217.918 260.777 214.991 255.442 209.781C250.108 204.57 247.111 197.503 247.111 190.134C247.111 182.766 250.108 175.699 255.442 170.488C260.777 165.278 268.012 162.351 275.556 162.351L275.556 190.134L275.556 217.918Z" fill="#5C6E3F"/>
<path d="M53.9645 107.28H54.0715V165.497C54.0715 148.698 41.8356 135.079 26.7358 135.079C41.0371 135.079 52.769 122.852 53.9645 107.28Z" fill="white"/>
<path d="M-0.599854 107.28H-0.492795C0.702695 122.852 12.4346 135.079 26.7358 135.079C11.6405 135.079 -0.599854 148.698 -0.599854 165.497L-0.599854 107.28Z" fill="white"/>
<path d="M-0.906857 163.03C-0.906857 155.576 1.98349 148.428 7.12833 143.158C12.2732 137.888 19.2511 134.927 26.527 134.927C33.8029 134.927 40.7808 137.888 45.9256 143.158C51.0704 148.428 53.9608 155.576 53.9608 163.03H26.527L-0.906857 163.03Z" fill="#DD5327"/>
<path d="M54.1766 107.268C54.1766 114.722 51.2863 121.87 46.1415 127.14C40.9966 132.41 34.0187 135.371 26.7428 135.371C19.4669 135.371 12.489 132.41 7.34417 127.14C2.19933 121.87 -0.69101 114.722 -0.69101 107.268H26.7428L54.1766 107.268Z" fill="#5C6E3F"/>
<path d="M110.05 162.919L110.05 163.028L51.123 163.028C68.127 163.028 81.9118 150.567 81.9119 135.19C81.9118 149.754 94.2877 161.702 110.05 162.919Z" fill="white"/>
<path d="M110.05 107.352L110.05 107.461C94.2881 108.679 81.912 120.626 81.9119 135.19C81.912 119.818 68.1274 107.352 51.1235 107.352H110.05Z" fill="white"/>
<path d="M53.4101 107.247C60.9541 107.189 68.2112 110.062 73.585 115.232C78.9588 120.402 82.0091 127.446 82.0648 134.814C82.1206 142.183 79.1772 149.272 73.8822 154.523C68.5873 159.774 61.3744 162.756 53.8305 162.813L53.6203 135.03L53.4101 107.247Z" fill="#DD5327"/>
<path d="M110.271 162.604C102.727 162.661 95.4702 159.789 90.0964 154.619C84.7226 149.449 81.6723 142.405 81.6165 135.036C81.5608 127.668 84.5042 120.578 89.7991 115.327C95.0941 110.077 102.307 107.095 109.851 107.038L110.061 134.821L110.271 162.604Z" fill="#5C6E3F"/>
<path d="M163.7 107.28H163.807V165.497C163.807 148.698 151.571 135.079 136.471 135.079C150.772 135.079 162.504 122.852 163.7 107.28Z" fill="white"/>
<path d="M109.135 107.28H109.242C110.438 122.852 122.17 135.079 136.471 135.079C121.376 135.079 109.135 148.698 109.135 165.497V107.28Z" fill="white"/>
<path d="M108.828 163.03C108.828 155.576 111.719 148.428 116.864 143.158C122.008 137.888 128.986 134.927 136.262 134.927C143.538 134.927 150.516 137.888 155.661 143.158C160.806 148.428 163.696 155.576 163.696 163.03H136.262L108.828 163.03Z" fill="#42B4E4"/>
<path d="M163.912 107.268C163.912 114.722 161.022 121.87 155.877 127.14C150.732 132.41 143.754 135.371 136.478 135.371C129.202 135.371 122.224 132.41 117.079 127.14C111.935 121.87 109.044 114.722 109.044 107.268H136.478L163.912 107.268Z" fill="#42B4E4"/>
<path d="M219.785 162.919L219.785 163.028L160.858 163.028C177.862 163.028 191.647 150.567 191.647 135.19C191.647 149.754 204.023 161.702 219.785 162.919Z" fill="white"/>
<path d="M219.786 107.352L219.786 107.461C204.023 108.679 191.647 120.626 191.647 135.19C191.647 119.818 177.863 107.352 160.859 107.352H219.786Z" fill="white"/>
<path d="M163.145 107.247C170.689 107.189 177.947 110.062 183.32 115.232C188.694 120.402 191.744 127.446 191.8 134.814C191.856 142.183 188.913 149.272 183.618 154.523C178.323 159.774 171.11 162.756 163.566 162.813L163.356 135.03L163.145 107.247Z" fill="#DD5327"/>
<path d="M220.007 162.604C212.463 162.661 205.205 159.789 199.832 154.619C194.458 149.449 191.408 142.405 191.352 135.036C191.296 127.668 194.239 120.578 199.534 115.327C204.829 110.077 212.042 107.095 219.586 107.038L219.796 134.821L220.007 162.604Z" fill="#5C6E3F"/>
<path d="M108.386 52.4121H108.493V110.63C108.493 93.8305 96.2571 80.2117 81.1574 80.2117C95.4587 80.2117 107.191 67.9847 108.386 52.4121Z" fill="white"/>
<path d="M53.8217 52.4122H53.9288C55.1243 67.9848 66.8561 80.2118 81.1574 80.2118C66.0621 80.2118 53.8217 93.8305 53.8217 110.63V52.4122Z" fill="white"/>
<path d="M53.5147 108.162C53.5147 100.709 56.4051 93.5606 61.5499 88.2903C66.6947 83.0199 73.6726 80.0591 80.9485 80.0591C88.2244 80.0591 95.2023 83.0199 100.347 88.2903C105.492 93.5606 108.382 100.709 108.382 108.162H80.9485L53.5147 108.162Z" fill="#DD5327"/>
<path d="M108.598 52.4007C108.598 59.8541 105.708 67.0022 100.563 72.2725C95.4182 77.5428 88.4403 80.5036 81.1644 80.5036C73.8885 80.5036 66.9106 77.5428 61.7657 72.2725C56.6209 67.0022 53.7306 59.8541 53.7306 52.4007H81.1644L108.598 52.4007Z" fill="#5C6E3F"/>
<path d="M164.472 108.051L164.472 108.16L105.545 108.16C122.549 108.16 136.333 95.6997 136.333 80.3226C136.333 94.8866 148.709 106.834 164.472 108.051Z" fill="white"/>
<path d="M164.472 52.4848L164.472 52.5938C148.71 53.8113 136.334 65.7586 136.333 80.3226C136.334 64.95 122.549 52.4848 105.545 52.4848H164.472Z" fill="white"/>
<path d="M107.832 52.379C115.376 52.3219 122.633 55.1942 128.007 60.3641C133.38 65.5341 136.431 72.5781 136.486 79.9466C136.542 87.3152 133.599 94.4046 128.304 99.6553C123.009 104.906 115.796 107.888 108.252 107.945L108.042 80.1621L107.832 52.379Z" fill="#DD5327"/>
<path d="M164.693 107.736C157.149 107.793 149.892 104.921 144.518 99.751C139.144 94.5811 136.094 87.5371 136.038 80.1685C135.982 72.8 138.926 65.7106 144.221 60.4598C149.516 55.2091 156.729 52.2272 164.272 52.17L164.483 79.9531L164.693 107.736Z" fill="#5C6E3F"/>
<path d="M218.121 52.4121H218.228V110.63C218.228 93.8305 205.992 80.2117 190.893 80.2117C205.194 80.2117 216.926 67.9847 218.121 52.4121Z" fill="white"/>
<path d="M163.557 52.4122H163.664C164.86 67.9848 176.591 80.2118 190.893 80.2118C175.797 80.2118 163.557 93.8305 163.557 110.63V52.4122Z" fill="white"/>
<path d="M163.25 108.162C163.25 100.709 166.14 93.5606 171.285 88.2903C176.43 83.0199 183.408 80.0591 190.684 80.0591C197.96 80.0591 204.938 83.0199 210.082 88.2903C215.227 93.5606 218.118 100.709 218.118 108.162H190.684L163.25 108.162Z" fill="#DD5327"/>
<path d="M218.333 52.4007C218.333 59.8541 215.443 67.0022 210.298 72.2725C205.153 77.5428 198.176 80.5036 190.9 80.5036C183.624 80.5036 176.646 77.5428 171.501 72.2725C166.356 67.0022 163.466 59.8541 163.466 52.4007H190.9L218.333 52.4007Z" fill="#5C6E3F"/>
<path d="M274.207 108.051L274.207 108.16L215.28 108.16C232.284 108.16 246.069 95.6997 246.069 80.3226C246.069 94.8866 258.445 106.834 274.207 108.051Z" fill="white"/>
<path d="M274.207 52.4848L274.207 52.5938C258.445 53.8113 246.069 65.7586 246.069 80.3226C246.069 64.95 232.284 52.4848 215.28 52.4848H274.207Z" fill="white"/>
<path d="M217.567 52.379C225.111 52.3219 232.368 55.1942 237.742 60.3641C243.116 65.5341 246.166 72.5781 246.222 79.9466C246.277 87.3152 243.334 94.4046 238.039 99.6553C232.744 104.906 225.531 107.888 217.987 107.945L217.777 80.1621L217.567 52.379Z" fill="#DD5327"/>
<path d="M274.218 107.737C266.673 107.737 259.438 104.81 254.104 99.5992C248.769 94.3887 245.772 87.3218 245.773 79.953C245.773 72.5843 248.77 65.5174 254.104 60.3069C259.439 55.0964 266.674 52.1692 274.218 52.1692L274.218 79.953L274.218 107.737Z" fill="#5C6E3F"/>
<path d="M51.288 -2.90155H51.3951V55.3161C51.3951 38.5168 39.1591 24.8981 24.0594 24.8981C38.3606 24.8981 50.0925 12.671 51.288 -2.90155Z" fill="white"/>
<path d="M-3.27632 -2.90158H-3.16926C-1.97377 12.671 9.75809 24.898 24.0594 24.898C8.96407 24.898 -3.27632 38.5168 -3.27632 55.3161L-3.27632 -2.90158Z" fill="white"/>
<path d="M-3.58332 52.8483C-3.58332 45.395 -0.692982 38.2469 4.45186 32.9765C9.59669 27.7062 16.5746 24.7454 23.8505 24.7454C31.1264 24.7454 38.1043 27.7062 43.2491 32.9765C48.394 38.2469 51.2843 45.395 51.2843 52.8483L23.8505 52.8483L-3.58332 52.8483Z" fill="#DD5327"/>
<path d="M51.5002 -2.91301C51.5002 4.54035 48.6098 11.6884 43.465 16.9588C38.3201 22.2291 31.3422 25.1899 24.0663 25.1899C16.7904 25.1899 9.81254 22.2291 4.6677 16.9588C-0.477137 11.6884 -3.36748 4.54035 -3.36748 -2.91302H24.0663L51.5002 -2.91301Z" fill="#5C6E3F"/>
<path d="M107.374 52.7377L107.374 52.8468L48.4465 52.8468C65.4505 52.8468 79.2353 40.3861 79.2355 25.009C79.2353 39.5729 91.6112 51.5203 107.374 52.7377Z" fill="white"/>
<path d="M107.374 -2.82895L107.374 -2.71992C91.6116 -1.50247 79.2356 10.4449 79.2354 25.0089C79.2356 9.63628 65.451 -2.82895 48.447 -2.82895H107.374Z" fill="white"/>
<path d="M50.7337 -2.93475C58.2776 -2.99188 65.5347 -0.119536 70.9085 5.0504C76.2823 10.2203 79.3326 17.2644 79.3884 24.6329C79.4441 32.0014 76.5007 39.0908 71.2058 44.3416C65.9108 49.5923 58.698 52.5742 51.154 52.6314L50.9439 24.8483L50.7337 -2.93475Z" fill="#DD5327"/>
<path d="M107.595 52.4224C100.051 52.4796 92.7937 49.6072 87.4199 44.4373C82.0461 39.2674 78.9958 32.2233 78.9401 24.8548C78.8843 17.4863 81.8277 10.3969 87.1227 5.14612C92.4176 -0.104613 99.6305 -3.08654 107.174 -3.14367L107.385 24.6394L107.595 52.4224Z" fill="#5C6E3F"/>
<path d="M161.023 -2.90155H161.13V55.3161C161.13 38.5168 148.894 24.8981 133.795 24.8981C148.096 24.8981 159.828 12.671 161.023 -2.90155Z" fill="white"/>
<path d="M106.459 -2.90158H106.566C107.762 12.671 119.493 24.898 133.795 24.898C118.699 24.898 106.459 38.5168 106.459 55.3161V-2.90158Z" fill="white"/>
<path d="M106.152 52.8483C106.152 45.395 109.042 38.2469 114.187 32.9765C119.332 27.7062 126.31 24.7454 133.586 24.7454C140.862 24.7454 147.84 27.7062 152.984 32.9765C158.129 38.2469 161.02 45.395 161.02 52.8483L133.586 52.8483L106.152 52.8483Z" fill="#42B4E4"/>
<path d="M161.235 -2.91301C161.235 4.54035 158.345 11.6884 153.2 16.9588C148.055 22.2291 141.078 25.1899 133.802 25.1899C126.526 25.1899 119.548 22.2291 114.403 16.9588C109.258 11.6884 106.368 4.54035 106.368 -2.91302H133.802L161.235 -2.91301Z" fill="#42B4E4"/>
<path d="M217.109 52.7377L217.109 52.8468L158.182 52.8468C175.186 52.8468 188.971 40.3861 188.971 25.009C188.971 39.5729 201.346 51.5203 217.109 52.7377Z" fill="white"/>
<path d="M217.109 -2.82895L217.109 -2.71992C201.347 -1.50247 188.971 10.4449 188.971 25.0089C188.971 9.63628 175.186 -2.82895 158.182 -2.82895H217.109Z" fill="white"/>
<path d="M160.469 -2.93475C168.013 -2.99188 175.27 -0.119536 180.644 5.0504C186.018 10.2203 189.068 17.2644 189.124 24.6329C189.179 32.0014 186.236 39.0908 180.941 44.3416C175.646 49.5923 168.433 52.5742 160.889 52.6314L160.679 24.8483L160.469 -2.93475Z" fill="#DD5327"/>
<path d="M217.33 52.4224C209.786 52.4796 202.529 49.6072 197.155 44.4373C191.781 39.2674 188.731 32.2233 188.675 24.8548C188.62 17.4863 191.563 10.3969 196.858 5.14612C202.153 -0.104613 209.366 -3.08654 216.91 -3.14367L217.12 24.6394L217.33 52.4224Z" fill="#5C6E3F"/>
<path d="M105.71 -57.7692H105.817V0.448471C105.817 -16.3508 93.5807 -29.9696 78.4809 -29.9696C92.7822 -29.9696 104.514 -42.1966 105.71 -57.7692Z" fill="white"/>
<path d="M51.1452 -57.7692H51.2523C52.4478 -42.1966 64.1797 -29.9696 78.4809 -29.9696C63.3856 -29.9696 51.1452 -16.3508 51.1452 0.448486V-57.7692Z" fill="white"/>
<path d="M215.445 -57.7692H215.552V0.448471C215.552 -16.3508 203.316 -29.9696 188.216 -29.9696C202.517 -29.9696 214.249 -42.1966 215.445 -57.7692Z" fill="white"/>
<path d="M160.881 -57.7692H160.988C162.183 -42.1966 173.915 -29.9696 188.216 -29.9696C173.121 -29.9696 160.881 -16.3508 160.881 0.448486V-57.7692Z" fill="white"/>
</g>
</g>
<defs>
<filter id="filter0_d_23_118" x="0" y="0" width="281" height="281" filterUnits="userSpaceOnUse" color-interpolation-filters="sRGB">
<feFlood flood-opacity="0" result="BackgroundImageFix"/>
<feColorMatrix in="SourceAlpha" type="matrix" values="0 0 0 0 0 0 0 0 0 0 0 0 0 0 0 0 0 0 127 0" result="hardAlpha"/>
<feOffset dy="4"/>
<feGaussianBlur stdDeviation="2"/>
<feComposite in2="hardAlpha" operator="out"/>
<feColorMatrix type="matrix" values="0 0 0 0 0 0 0 0 0 0 0 0 0 0 0 0 0 0 0.25 0"/>
<feBlend mode="normal" in2="BackgroundImageFix" result="effect1_dropShadow_23_118"/>
<feBlend mode="normal" in="SourceGraphic" in2="effect1_dropShadow_23_118" result="shape"/>
</filter>
<clipPath id="clip0_23_118">
<rect x="4" y="273" width="273" height="273" rx="12.06" transform="rotate(-90 4 273)" fill="white"/>
</clipPath>
</defs>
</svg>
